<svg xmlns="http://www.w3.org/2000/svg" id="Ebene_1" viewBox="0 0 600 600"><style>.st5{fill:#d4155b}</style><linearGradient id="SVGID_1_" gradientUnits="userSpaceOnUse" x1="435.099" y1="533.999" x2="164.901" y2="66.001"><stop offset="0" stop-color="#808081"/><stop offset=".704" stop-color="#333"/></linearGradient><path d="M537 473H63c-7.7 0-14-6.3-14-14V141.1c0-7.7 6.3-14 14-14h474c7.7 0 14 6.3 14 14V459c.1 7.7-6.2 14-14 14z" fill="url(#SVGID_1_)"/><linearGradient id="SVGID_2_" gradientUnits="userSpaceOnUse" x1="362.766" y1="266.266" x2="237.234" y2="48.838"><stop offset="0" stop-color="#808081"/><stop offset=".704" stop-color="#333"/></linearGradient><path fill="url(#SVGID_2_)" stroke="#fff" stroke-width="2" stroke-miterlimit="10" d="M48.9 157.6h502.2"/><circle cx="69.6" cy="142.6" r="6.9" fill="#e52528"/><circle cx="91" cy="142.6" r="6.9" fill="#f3e600"/><circle cx="112.5" cy="142.6" r="6.9" fill="#66b32e"/><path class="st5" d="M71.5 237.2v-2.6l13.2-8.8v3.3l-10.2 6.7v.1l10.2 6.7v3.3l-13.2-8.7zm18.8 1.8c0-5.6 3.7-9 7.6-9 2 0 3.5.8 4.9 2.1h.1l-.2-3v-6.4h3.5v24.8h-2.9l-.3-2.1c-1.4 1.4-3.3 2.5-5.4 2.5-4.4.1-7.3-3.2-7.3-8.9zm12.4 3.8v-8.1c-1.4-1.3-2.7-1.8-4-1.8-2.7 0-4.9 2.3-4.9 6.1 0 3.9 1.7 6.1 4.6 6.1 1.6 0 3-.8 4.3-2.3zm17.3-9.6h-7.6v-2.8h11.1v17.1H120v-14.3zm-1.1-8.6c0-1.5 1.1-2.5 2.6-2.5s2.6 1 2.6 2.5-1.1 2.5-2.6 2.5-2.6-1-2.6-2.5zm13 5.8h3.5l3.6 9.3 1.8 5.1h.1c.6-1.7 1.1-3.4 1.8-5.1l3.6-9.3h3.3l-6.9 17.1h-3.9l-6.9-17.1z"/><path d="M175 239c0-5.7 4.4-9 9.6-9 2.8 0 4.9 1.1 6.3 2.5l-1.7 2.2c-1.4-1.1-2.8-1.8-4.4-1.8-3.7 0-6.2 2.4-6.2 6.1 0 3.7 2.5 6.1 6.1 6.1 2 0 3.7-.9 5.1-2l1.5 2.2c-1.9 1.7-4.4 2.6-6.9 2.6-5.4.1-9.4-3.2-9.4-8.9zm26.5 2.6v-16h-5.9v-2.8h9.4v19c0 2.4 1.3 3.3 3.2 3.3.9 0 1.9-.2 3.1-.7l.8 2.6c-1.6.6-2.8 1-4.7 1-3.8 0-5.9-2.3-5.9-6.4zm15.4 1.4c0-3.8 3.5-5.7 12.1-6.4-.1-2.1-1.3-3.8-4.3-3.8-2.1 0-4.1.9-5.8 1.9l-1.3-2.3c1.9-1.2 4.8-2.4 7.7-2.4 4.7 0 7.2 2.7 7.2 7.2v10.3h-2.9l-.3-2.2h-.1c-1.8 1.4-4.2 2.6-6.5 2.6-3.3.1-5.8-1.9-5.8-4.9zm12.1-.1v-4c-6.7.5-8.7 1.8-8.7 3.9 0 1.7 1.5 2.4 3.4 2.4 1.8 0 3.6-.9 5.3-2.3zm8.6 2.4l1.6-2.3c2 1.4 4.3 2.2 7.3 2.2 2.6 0 3.9-1 3.9-2.3 0-1.2-.7-2-5-2.9-4.5-.9-6.6-2.5-6.6-5.1 0-2.9 2.6-5 7.3-5 2.7 0 5.3 1.1 7 2.2l-1.6 2.2c-1.6-1.1-3.6-1.8-5.7-1.8-2.5 0-3.5 1-3.5 2.2 0 1.3 1.4 1.9 4.7 2.6 5.6 1.2 7 2.7 7 5.3 0 2.9-2.8 5.2-7.8 5.2-3.5.2-6.5-1-8.6-2.5zm21 0l1.6-2.3c2 1.4 4.3 2.2 7.3 2.2 2.6 0 3.9-1 3.9-2.3 0-1.2-.7-2-5-2.9-4.5-.9-6.6-2.5-6.6-5.1 0-2.9 2.6-5 7.3-5 2.7 0 5.3 1.1 7 2.2l-1.6 2.2c-1.6-1.1-3.6-1.8-5.7-1.8-2.5 0-3.5 1-3.5 2.2 0 1.3 1.4 1.9 4.7 2.6 5.6 1.2 7 2.7 7 5.3 0 2.9-2.8 5.2-7.8 5.2-3.5.2-6.5-1-8.6-2.5zm21.5-14.4h15.3v2.5h-15.3v-2.5zm0 7.7h15.3v2.5h-15.3v-2.5zm21.1-7.3c0-3.6 1.9-6.5 5.3-8.2l1 2c-2.4 1.3-3.7 3.2-3.7 5.9l.5 2.9-2-2.5c.6-.6 1.5-1.1 2.3-1.1 1.5 0 2.6 1.1 2.6 2.7 0 1.7-1.1 2.9-2.8 2.9-1.8 0-3.2-1.7-3.2-4.6zm8.4 0c0-3.6 1.9-6.5 5.3-8.2l1 2c-2.4 1.3-3.7 3.2-3.7 5.9l.5 2.9-2-2.5c.6-.6 1.5-1.1 2.3-1.1 1.5 0 2.6 1.1 2.6 2.7 0 1.7-1.1 2.9-2.8 2.9-1.9 0-3.2-1.7-3.2-4.6zM322 239c0-5.7 4.4-9 9.6-9 2.8 0 4.9 1.1 6.3 2.5l-1.7 2.2c-1.4-1.1-2.8-1.8-4.4-1.8-3.7 0-6.2 2.4-6.2 6.1 0 3.7 2.5 6.1 6.1 6.1 2 0 3.7-.9 5.1-2l1.5 2.2c-1.9 1.7-4.4 2.6-6.9 2.6-5.4.1-9.4-3.2-9.4-8.9zm20.3 0c0-5.7 4-9 8.5-9s8.5 3.3 8.5 9-4 8.9-8.5 8.9-8.5-3.2-8.5-8.9zm13.4 0c0-3.7-1.9-6.1-4.9-6.1s-4.9 2.4-4.9 6.1c0 3.7 1.9 6.1 4.9 6.1s4.9-2.4 4.9-6.1zm7.6 0c0-5.6 3.7-9 7.6-9 2 0 3.5.8 4.9 2.1h.1l-.2-3v-6.4h3.5v24.8h-2.9l-.3-2.1c-1.4 1.4-3.3 2.5-5.4 2.5-4.4.1-7.3-3.2-7.3-8.9zm12.4 3.8v-8.1c-1.4-1.3-2.7-1.8-4-1.8-2.7 0-4.8 2.3-4.8 6.1 0 3.9 1.7 6.1 4.6 6.1 1.5 0 2.9-.8 4.2-2.3zm8.9-3.8c0-5.6 4.2-8.9 8.8-8.9 5 0 7.9 3.3 7.9 8.1 0 .7-.1 1.4-.2 1.9H387v-2.6h11.9l-.8.9c0-3.7-1.8-5.6-4.7-5.6-3 0-5.4 2.2-5.4 6.2 0 4.2 2.6 6.3 6.3 6.3 1.9 0 3.5-.6 5-1.5l1.2 2.2c-1.8 1.2-4 2-6.7 2-5.1 0-9.2-3.3-9.2-9zm21.6-7.7c0-3.6 1.9-6.5 5.3-8.2l1 2c-2.4 1.3-3.7 3.2-3.7 5.9l.5 2.9-2-2.5c.6-.6 1.5-1.1 2.3-1.1 1.5 0 2.6 1.1 2.6 2.7 0 1.7-1.1 2.9-2.8 2.9-1.8 0-3.2-1.7-3.2-4.6zm8.4 0c0-3.6 1.9-6.5 5.3-8.2l1 2c-2.4 1.3-3.7 3.2-3.7 5.9l.5 2.9-2-2.5c.6-.6 1.5-1.1 2.3-1.1 1.5 0 2.6 1.1 2.6 2.7 0 1.7-1.1 2.9-2.8 2.9-1.9 0-3.2-1.7-3.2-4.6z" fill="#00aa9e"/><path class="st5" d="M428 242.7l10.2-6.7v-.1l-10.2-6.7v-3.3l13.2 8.8v2.6L428 246v-3.3zm-320.5 36.5v-2.6l13.2-8.8v3.3l-10.2 6.7v.1l10.2 6.7v3.3l-13.2-8.7zm19.9-14.5h3.5v6.6l-.2 3.8h.1c1.6-1.7 3.6-3.1 6.2-3.1 4 0 5.8 2.5 5.8 6.9v10.6h-3.5v-10.2c0-3-1-4.4-3.5-4.4-1.9 0-3.1.9-4.9 2.7v11.8h-3.5v-24.7zm21.1 22h6.3v-15.5h-5V269c2.7-.4 4.4-.9 5.9-1.7h2.6v19.4h5.6v2.9h-15.4v-2.9zm21.5-2l10.2-6.7v-.1l-10.2-6.7v-3.3l13.2 8.8v2.6L170 288v-3.3z"/><path d="M189.9 266.6h3.5v9.4h8.7v-9.4h3.5v22.9h-3.5V279h-8.7v10.5h-3.5v-22.9zm20.7 14.4c0-5.6 4.2-8.9 8.8-8.9 5 0 7.9 3.3 7.9 8.1 0 .7-.1 1.4-.2 1.9H213v-2.6h11.9l-.8.9c0-3.7-1.8-5.6-4.7-5.6-3 0-5.4 2.2-5.4 6.2 0 4.2 2.6 6.3 6.3 6.3 1.9 0 3.5-.6 5-1.5l1.2 2.2c-1.8 1.2-4 2-6.7 2-5.1 0-9.2-3.3-9.2-9zm26.9 2.6v-16h-5.9v-2.8h9.4v19c0 2.4 1.3 3.3 3.2 3.3.9 0 1.9-.2 3.1-.7l.8 2.6c-1.6.6-2.8 1-4.7 1-3.8 0-5.9-2.3-5.9-6.4zm21 0v-16h-5.9v-2.8h9.4v19c0 2.4 1.3 3.3 3.2 3.3.9 0 1.9-.2 3.1-.7l.8 2.6c-1.6.6-2.8 1-4.7 1-3.8 0-5.9-2.3-5.9-6.4zm14.8-2.6c0-5.7 4-9 8.5-9s8.5 3.3 8.5 9-4 8.9-8.5 8.9c-4.5.1-8.5-3.2-8.5-8.9zm13.4 0c0-3.7-1.9-6.1-4.9-6.1-3 0-4.9 2.4-4.9 6.1 0 3.7 1.9 6.1 4.9 6.1 3 0 4.9-2.4 4.9-6.1zm26.9-14.4h3.8l1.4 13.8c.2 1.9.3 3.2.4 5.4h.1c.4-2.2.7-3.5 1.1-5.4l2.1-8h2.9l2 8c.5 1.9.7 3.2 1.1 5.4h.1c.1-2.2.2-3.5.3-5.4l1.4-13.9h3.6l-3.2 23h-4.1l-2-8.7c-.3-1.4-.6-2.8-.8-4.2h-.1c-.2 1.4-.4 2.8-.8 4.2l-2 8.7h-4l-3.3-22.9zm22.7 14.4c0-5.7 4-9 8.5-9s8.5 3.3 8.5 9-4 8.9-8.5 8.9-8.5-3.2-8.5-8.9zm13.4 0c0-3.7-1.9-6.1-4.9-6.1s-4.9 2.4-4.9 6.1c0 3.7 1.9 6.1 4.9 6.1s4.9-2.4 4.9-6.1zm10.4-8.6h2.9l.3 4h.1c1.8-2.8 4.4-4.4 7.5-4.4 1.3 0 2.3.2 3.4.7l-.8 3c-1.2-.4-1.8-.5-3.1-.5-2.5 0-4.8 1.2-6.7 4.7v9.7h-3.5v-17.2zm24.4 11.2v-16h-5.9v-2.8h9.4v19c0 2.4 1.3 3.3 3.2 3.3.9 0 1.9-.2 3.1-.7l.8 2.6c-1.6.6-2.8 1-4.7 1-3.8 0-5.9-2.3-5.9-6.4zm14.8-2.6c0-5.6 3.7-9 7.6-9 2 0 3.5.8 4.9 2.1h.1l-.2-3v-6.4h3.5v24.8h-2.9l-.3-2.1c-1.4 1.4-3.3 2.5-5.4 2.5-4.4.1-7.3-3.2-7.3-8.9zm12.4 3.8v-8.1c-1.4-1.3-2.7-1.8-4-1.8-2.7 0-4.8 2.3-4.8 6.1 0 3.9 1.7 6.1 4.6 6.1 1.5 0 2.9-.8 4.2-2.3z" fill="#fff"/><path class="st5" d="M422.5 279.2v-2.6l13.2-8.8v3.3l-10.2 6.7v.1l10.2 6.7v3.3l-13.2-8.7zm31.5-14.5h3l-11.5 30.5h-3l11.5-30.5zm9.4 0h3.5v6.6l-.2 3.8h.1c1.6-1.7 3.6-3.1 6.2-3.1 4 0 5.8 2.5 5.8 6.9v10.6h-3.5v-10.2c0-3-1-4.4-3.5-4.4-1.9 0-3.1.9-4.9 2.7v11.8h-3.5v-24.7zm21.1 22h6.3v-15.5h-5V269c2.7-.4 4.4-.9 5.9-1.7h2.6v19.4h5.6v2.9h-15.4v-2.9zm21.5-2l10.2-6.7v-.1l-10.2-6.7v-3.3l13.2 8.8v2.6L506 288v-3.3zm-398.5 36.5v-2.6l13.2-8.8v3.3l-10.2 6.7v.1l10.2 6.7v3.3l-13.2-8.7zm19.9-14.5h3.5v6.6l-.2 3.8h.1c1.6-1.7 3.6-3.1 6.2-3.1 4 0 5.8 2.5 5.8 6.9v10.6h-3.5v-10.2c0-3-1-4.4-3.5-4.4-1.9 0-3.1.9-4.9 2.7v11.8h-3.5v-24.7zm22.7 7.7h2.9l.3 4h.1c1.8-2.8 4.4-4.4 7.5-4.4 1.3 0 2.3.2 3.4.7l-.8 3c-1.2-.4-1.8-.5-3.1-.5-2.5 0-4.8 1.2-6.7 4.7v9.7h-3.5v-17.2zm19.9 12.3l10.2-6.7v-.1l-10.2-6.7v-3.3l13.2 8.8v2.6L170 330v-3.3zm-98.5 36.5v-2.6l13.2-8.8v3.3l-10.2 6.7v.1l10.2 6.7v3.3l-13.2-8.7zm31.5-14.5h3l-11.5 30.5h-3l11.5-30.5zm8.3 16.3c0-5.6 3.7-9 7.6-9 2 0 3.5.8 4.9 2.1h.1l-.2-3v-6.4h3.5v24.8h-2.9l-.3-2.1c-1.4 1.4-3.3 2.5-5.4 2.5-4.4.1-7.3-3.2-7.3-8.9zm12.4 3.8v-8.1c-1.4-1.3-2.7-1.8-4-1.8-2.7 0-4.9 2.3-4.9 6.1 0 3.9 1.7 6.1 4.6 6.1 1.6 0 3-.8 4.3-2.3zm17.3-9.6h-7.6v-2.8h11.1v17.1H141v-14.3zm-1.1-8.6c0-1.5 1.1-2.5 2.6-2.5s2.6 1 2.6 2.5-1.1 2.5-2.6 2.5-2.6-1-2.6-2.5zm13 5.8h3.5l3.6 9.3 1.8 5.1h.1c.6-1.7 1.1-3.4 1.8-5.1l3.6-9.3h3.3l-6.9 17.1h-3.9l-6.9-17.1zm23.1 12.3l10.2-6.7v-.1l-10.2-6.7v-3.3l13.2 8.8v2.6L176 372v-3.3z"/></svg>