<svg viewBox="0 0 640 480" xmlns="http://www.w3.org/2000/svg"><path d="M-38.633 179.52H-3.96c3.119 0 5.63 2.246 5.63 5.035v35.862c0 2.79-2.511 5.035-5.63 5.035h-34.673c-3.119 0-5.63-2.245-5.63-5.035v-35.862c0-2.79 2.511-5.035 5.63-5.035zM199.99 388.38h242.72c3.119 0 5.63 2.246 5.63 5.035v35.862c0 2.79-2.511 5.035-5.63 5.035H199.99c-3.119 0-5.63-2.245-5.63-5.035v-35.862c0-2.79 2.511-5.035 5.63-5.035zM638.93 231.9h65.378c3.5 0 6.316 2.662 6.316 5.97v88.102c0 3.307-2.817 5.97-6.316 5.97l-43.516-.258c-2.865-.414-5.044-2.72-4.818-5.69l.127-48.887H638.93c-3.5 0-6.316-2.663-6.316-5.97V237.87c0-3.306 2.817-5.969 6.316-5.969zm-677.563-93.79h31.971c3.119 0 5.63 2.246 5.63 5.035V168.2c0 2.79-2.511 5.035-5.63 5.035h-31.971c-3.119 0-5.63-2.245-5.63-5.035v-25.054c0-2.79 2.511-5.035 5.63-5.035z" fill="#2f2930" stroke="#fff" stroke-linecap="round" stroke-linejoin="round" stroke-miterlimit="13.654" stroke-width="2.702"/><path d="M-39.296 143.03h5.574v1.004h-4.381v2.61h4.198v1.003h-4.198v3.194h4.487v1.004h-5.68v-8.815zm11.82 2.397v1.027a4.244 4.244 0 0 0-1.984-.472c-.539 0-.943.083-1.213.248-.27.165-.404.413-.404.744a.7.7 0 0 0 .289.593c.193.144.58.28 1.163.41l.372.083c.771.166 1.32.399 1.644.7.325.301.487.721.487 1.26 0 .614-.243 1.1-.729 1.459-.486.358-1.154.537-2.004.537-.355 0-.724-.034-1.107-.103a9.25 9.25 0 0 1-1.214-.31v-1.122a5.96 5.96 0 0 0 1.187.47c.39.104.775.156 1.157.156.512 0 .906-.088 1.181-.263a.83.83 0 0 0 .413-.741c0-.295-.099-.522-.298-.679-.199-.157-.634-.309-1.308-.455l-.377-.088c-.674-.142-1.16-.36-1.459-.653-.299-.293-.448-.695-.448-1.207 0-.622.22-1.102.66-1.44.442-.339 1.067-.508 1.878-.508.402 0 .78.03 1.134.088.354.06.68.148.98.266zm6.849.06v1.015a4.228 4.228 0 0 0-.924-.381 3.528 3.528 0 0 0-.936-.127c-.705 0-1.252.223-1.641.67-.39.447-.585 1.074-.585 1.88 0 .807.195 1.434.585 1.881.39.447.936.67 1.64.67.316 0 .628-.042.937-.127a4.23 4.23 0 0 0 .924-.38v1.003a4.463 4.463 0 0 1-.942.319c-.325.07-.67.106-1.036.106-.996 0-1.787-.313-2.374-.939-.586-.625-.88-1.47-.88-2.532 0-1.079.297-1.927.89-2.545.592-.618 1.403-.927 2.435-.927a4.463 4.463 0 0 1 1.907.413z" fill="#fff"/><path d="M9.007 138.11h31.971c3.12 0 5.63 2.246 5.63 5.035V168.2c0 2.79-2.51 5.035-5.63 5.035H9.008c-3.12 0-5.63-2.245-5.63-5.035v-25.054c0-2.79 2.51-5.035 5.63-5.035z" fill="#2f2930" stroke="#fff" stroke-linecap="round" stroke-linejoin="round" stroke-miterlimit="13.654" stroke-width="2.702"/><path d="M11.512 143.94h5.066v1.004h-3.873v2.598H16.2v1.003h-3.495v4.21h-1.193v-8.815zm7.28 7.811h1.948v-6.725l-2.12.425v-1.086l2.108-.425h1.193v7.811h1.948v1.004h-5.077v-1.004z" fill="#fff"/><path d="M151.93 138.11h31.971c3.119 0 5.63 2.246 5.63 5.035V168.2c0 2.79-2.511 5.035-5.63 5.035H151.93c-3.119 0-5.63-2.245-5.63-5.035v-25.054c0-2.79 2.511-5.035 5.63-5.035z" fill="#2f2930" stroke="#fff" stroke-linecap="round" stroke-linejoin="round" stroke-miterlimit="13.654" stroke-width="2.702"/><path d="M154.94 143.94h5.066v1.004h-3.873v2.598h3.495v1.003h-3.495v4.21h-1.193v-8.815zm10.35 1.04l-3.011 4.705h3.011v-4.706zm-.313-1.04h1.5v5.745h1.257v.992h-1.257v2.078h-1.187v-2.078h-3.98v-1.152l3.667-5.585zM-34.55 187.85h7.569v3.395h-.992v-2.391h-6.577v-1.004zm.886 19.602L-32 209.66h-.904l-1.924-2.208h1.163zm21.435-10.032v12.092h-1.004V197.42h1.004z" fill="#fff"/><path d="M416.65 179.52h34.673c3.119 0 5.63 2.246 5.63 5.035v35.862c0 2.79-2.511 5.035-5.63 5.035H416.65c-3.119 0-5.63-2.245-5.63-5.035v-35.862c0-2.79 2.511-5.035 5.63-5.035z" fill="#2f2930" stroke="#fff" stroke-linecap="round" stroke-linejoin="round" stroke-miterlimit="13.654" stroke-width="2.702"/><path d="M423.11 188.72c-.527.905-.92 1.8-1.175 2.686a9.655 9.655 0 0 0 .003 5.394 12 12 0 0 0 1.172 2.69h-.945c-.59-.926-1.032-1.835-1.325-2.729a8.5 8.5 0 0 1-.44-2.662c0-.878.146-1.762.437-2.651.291-.89.734-1.8 1.328-2.728h.945zm-3.909 24.106v-1.086c.3.141.603.25.91.324.307.075.608.113.903.113.787 0 1.389-.265 1.804-.795.415-.529.652-1.333.711-2.411a2.32 2.32 0 0 1-.868.779c-.35.181-.738.272-1.163.272-.882 0-1.58-.267-2.093-.8-.513-.534-.77-1.263-.77-2.188 0-.905.267-1.631.803-2.178.535-.548 1.247-.821 2.137-.821 1.02 0 1.798.39 2.335 1.172.537.781.806 1.916.806 3.404 0 1.389-.33 2.498-.99 3.326-.658.829-1.545 1.243-2.659 1.243a4.91 4.91 0 0 1-.91-.088 6.501 6.501 0 0 1-.956-.266zm2.374-3.737c.535 0 .96-.183 1.272-.55.313-.365.47-.867.47-1.505 0-.634-.157-1.135-.47-1.503-.313-.368-.737-.552-1.272-.552s-.96.184-1.272.552c-.313.369-.47.87-.47 1.503 0 .638.157 1.14.47 1.506.313.366.737.549 1.272.549z" fill="#fff"/><path d="M467.23 179.52h34.673c3.119 0 5.63 2.246 5.63 5.035v35.862c0 2.79-2.511 5.035-5.63 5.035H467.23c-3.119 0-5.63-2.245-5.63-5.035v-35.862c0-2.79 2.511-5.035 5.63-5.035z" fill="#2f2930" stroke="#fff" stroke-linecap="round" stroke-linejoin="round" stroke-miterlimit="13.654" stroke-width="2.702"/><g fill="#fff"><path d="M469.03 188.72h.945c.59.929 1.032 1.838 1.325 2.728.293.89.44 1.773.44 2.65a8.5 8.5 0 0 1-.44 2.663c-.293.894-.735 1.803-1.325 2.728h-.945c.523-.901.914-1.798 1.172-2.69a9.589 9.589 0 0 0 0-5.393 12.186 12.186 0 0 0-1.172-2.686zm1.387 16.26c-.614 0-1.075.302-1.384.906-.309.604-.463 1.513-.463 2.725 0 1.208.154 2.115.463 2.719.309.604.77.906 1.384.906.618 0 1.082-.302 1.39-.906.31-.604.464-1.51.464-2.719 0-1.212-.154-2.12-.463-2.725-.31-.604-.773-.906-1.39-.906zm0-.945c.988 0 1.743.391 2.265 1.172.521.782.782 1.916.782 3.404 0 1.484-.26 2.617-.782 3.398-.522.781-1.277 1.172-2.265 1.172-.987 0-1.742-.39-2.264-1.172-.521-.781-.782-1.914-.782-3.398 0-1.488.26-2.622.782-3.404.522-.78 1.276-1.172 2.264-1.172z"/><path d="M664.86 241.82v9.119h-15.282v-2.871l-6.84 3.884 6.84 3.968v-2.955h17.224V241.82h-1.942z" fill-rule="evenodd" stroke-width=".727"/></g><path d="M21.48 336.17h34.673c3.119 0 5.63 2.246 5.63 5.035v35.862c0 2.79-2.511 5.035-5.63 5.035H21.48c-3.119 0-5.63-2.245-5.63-5.035v-35.862c0-2.79 2.511-5.035 5.63-5.035z" fill="#2f2930" stroke="#fff" stroke-linecap="round" stroke-linejoin="round" stroke-miterlimit="13.654" stroke-width="2.702"/><path d="M29.457 347.35v12.092h-1.004V347.35h1.004zm-1.535 15.54l3.07 9.937h-1.004l-3.07-9.937h1.004z" fill="#fff"/><path d="M-38.633 388.38h70.775c3.119 0 5.63 2.246 5.63 5.035v35.862c0 2.79-2.511 5.035-5.63 5.035h-70.775c-3.119 0-5.63-2.245-5.63-5.035v-35.862c0-2.79 2.511-5.035 5.63-5.035z" fill="#2f2930" stroke="#fff" stroke-linecap="round" stroke-linejoin="round" stroke-miterlimit="13.654" stroke-width="2.702"/><path d="M-28.684 400.93v1.232a4.136 4.136 0 0 0-1.258-.821 3.734 3.734 0 0 0-1.42-.272c-.988 0-1.744.302-2.269.905-.524.604-.787 1.477-.787 2.618 0 1.138.263 2.01.787 2.613.525.603 1.28.905 2.268.905.502 0 .975-.09 1.42-.272a4.137 4.137 0 0 0 1.259-.821v1.22a4.77 4.77 0 0 1-2.748.834c-1.308 0-2.338-.4-3.09-1.201-.752-.8-1.128-1.893-1.128-3.278 0-1.388.376-2.483 1.128-3.283.752-.8 1.782-1.2 3.09-1.2.517 0 1.004.068 1.46.205.458.137.887.342 1.288.616zm2.823-.347v1.84h2.193v.827h-2.193v3.518c0 .528.073.868.217 1.018.145.15.44.226.883.226h1.093v.89h-1.093c-.822 0-1.389-.153-1.701-.46-.313-.306-.469-.864-.469-1.674v-3.518h-.781v-.827h.781v-1.84h1.07zm7.354 2.835c-.12-.07-.25-.12-.39-.153a2.055 2.055 0 0 0-.466-.05c-.602 0-1.064.196-1.386.588-.322.391-.483.953-.483 1.686v3.414h-1.07v-6.48h1.07v1.007c.224-.394.515-.686.874-.877.358-.19.794-.286 1.307-.286.073 0 .154.004.243.014s.187.024.295.044l.006 1.093zm1.128-3.518h1.065v9.003h-1.065V399.9z" fill="#fff"/><path d="M98.732 388.38h34.673c3.119 0 5.63 2.246 5.63 5.035v35.862c0 2.79-2.511 5.035-5.63 5.035H98.732c-3.119 0-5.63-2.245-5.63-5.035v-35.862c0-2.79 2.511-5.035 5.63-5.035z" fill="#2f2930" stroke="#fff" stroke-linecap="round" stroke-linejoin="round" stroke-miterlimit="13.654" stroke-width="2.702"/><path d="M112.38 402.91l2.514-2.538 1.384 1.397-2.502 2.5c.3.479.522.958.668 1.44.146.481.219.973.219 1.475 0 .51-.077.998-.23 1.463a5.354 5.354 0 0 1-.717 1.39l2.538 2.514-1.385 1.372-2.513-2.513a5.714 5.714 0 0 1-1.421.716c-.47.154-.951.23-1.445.23-.47 0-.947-.074-1.433-.224a6.576 6.576 0 0 1-1.469-.674l-2.513 2.514-1.373-1.397 2.514-2.501a6.926 6.926 0 0 1-.674-1.47 4.729 4.729 0 0 1 .006-2.901c.154-.47.385-.931.692-1.385l-2.513-2.5 1.396-1.397 2.514 2.513a5 5 0 0 1 1.372-.698c.47-.15.963-.225 1.481-.225.486 0 .965.073 1.439.219a6.22 6.22 0 0 1 1.451.68zm.376 4.25c0-.907-.313-1.672-.94-2.295-.628-.623-1.403-.935-2.326-.935-.907 0-1.68.312-2.32.935s-.958 1.388-.958 2.295c0 .923.317 1.7.953 2.331.635.632 1.41.947 2.325.947.915 0 1.688-.317 2.32-.953.63-.635.946-1.41.946-2.325z" fill="#fff"/><rect x="143.73" y="388.38" width="45.932" height="45.932" rx="5.629" ry="5.035" fill="#2f2930" stroke="#fff" stroke-linecap="round" stroke-linejoin="round" stroke-miterlimit="13.654" stroke-width="2.702"/><path d="M156.14 402.78l-1.585 4.299h3.176l-1.591-4.299zm-.66-1.151h1.325l3.292 8.638h-1.215l-.787-2.216h-3.893l-.787 2.216h-1.233l3.298-8.638zm5.827-.365h1.064v9.003h-1.064v-9.003zm4.339.683v1.84h2.193v.827h-2.193v3.518c0 .528.072.868.217 1.018.144.15.439.226.882.226h1.094v.89h-1.094c-.821 0-1.388-.153-1.7-.46-.313-.306-.47-.864-.47-1.674v-3.518h-.78v-.827h.78v-1.84h1.07z" fill="#fff"/><path d="M56.648 138.11h31.971c3.119 0 5.63 2.246 5.63 5.035V168.2c0 2.79-2.511 5.035-5.63 5.035H56.648c-3.119 0-5.63-2.245-5.63-5.035v-25.054c0-2.79 2.511-5.035 5.63-5.035z" fill="#2f2930" stroke="#fff" stroke-linecap="round" stroke-linejoin="round" stroke-miterlimit="13.654" stroke-width="2.702"/><path d="M57.439 143.94h5.066v1.004h-3.873v2.598h3.495v1.003h-3.495v4.21h-1.193v-8.815zm8.1 7.811h4.163v1.004h-5.597v-1.004a231.04 231.04 0 0 1 1.85-1.886c.782-.79 1.273-1.298 1.474-1.527.382-.429.648-.792.8-1.089a1.92 1.92 0 0 0 .227-.877c0-.468-.164-.85-.493-1.145-.329-.295-.757-.443-1.284-.443-.374 0-.768.065-1.184.195-.415.13-.859.327-1.331.59v-1.204c.48-.193.929-.338 1.346-.437a5.024 5.024 0 0 1 1.145-.147c.913 0 1.642.228 2.185.684.543.457.815 1.067.815 1.83 0 .363-.068.706-.204 1.031-.136.325-.383.708-.741 1.148a35.83 35.83 0 0 1-.939.99c-.527.544-1.271 1.307-2.232 2.287z" fill="#fff"/><path d="M104.29 138.11h31.971c3.119 0 5.63 2.246 5.63 5.035V168.2c0 2.79-2.511 5.035-5.63 5.035H104.29c-3.119 0-5.63-2.245-5.63-5.035v-25.054c0-2.79 2.511-5.035 5.63-5.035z" fill="#2f2930" stroke="#fff" stroke-linecap="round" stroke-linejoin="round" stroke-miterlimit="13.654" stroke-width="2.702"/><path d="M104.1 143.76h5.066v1.004h-3.873v2.597h3.495v1.004h-3.495v4.21H104.1v-8.815zm10.686 4.062c.57.122 1.016.376 1.337.762.321.385.481.862.481 1.428 0 .87-.299 1.543-.897 2.02-.598.476-1.449.714-2.55.714-.37 0-.751-.036-1.143-.11a8.278 8.278 0 0 1-1.213-.327v-1.151c.33.193.692.338 1.086.437.393.098.805.147 1.234.147.748 0 1.317-.147 1.71-.442.39-.296.586-.725.586-1.288 0-.52-.182-.926-.546-1.219-.364-.293-.87-.44-1.52-.44h-1.027v-.98h1.074c.587 0 1.035-.117 1.346-.351.311-.234.467-.572.467-1.013 0-.452-.16-.8-.481-1.042-.321-.242-.78-.363-1.379-.363-.327 0-.677.036-1.05.107-.375.07-.786.18-1.235.33v-1.063a11.8 11.8 0 0 1 1.272-.283 7.134 7.134 0 0 1 1.12-.094c.905 0 1.62.205 2.148.617.528.41.791.967.792 1.667 0 .489-.14.9-.42 1.237-.28.337-.677.57-1.192.7z" fill="#fff"/><path d="M199.57 138.11h31.971c3.119 0 5.63 2.246 5.63 5.035V168.2c0 2.79-2.511 5.035-5.63 5.035H199.57c-3.119 0-5.63-2.245-5.63-5.035v-25.054c0-2.79 2.511-5.035 5.63-5.035zm47.64 0h31.971c3.119 0 5.63 2.246 5.63 5.035V168.2c0 2.79-2.511 5.035-5.63 5.035H247.21c-3.119 0-5.63-2.245-5.63-5.035v-25.054c0-2.79 2.511-5.035 5.63-5.035zm47.64 0h31.971c3.119 0 5.63 2.246 5.63 5.035V168.2c0 2.79-2.511 5.035-5.63 5.035H294.85c-3.119 0-5.63-2.245-5.63-5.035v-25.054c0-2.79 2.511-5.035 5.63-5.035zm47.64 0h31.971c3.119 0 5.63 2.246 5.63 5.035V168.2c0 2.79-2.511 5.035-5.63 5.035H342.49c-3.119 0-5.63-2.245-5.63-5.035v-25.054c0-2.79 2.511-5.035 5.63-5.035z" fill="#2f2930" stroke="#fff" stroke-linecap="round" stroke-linejoin="round" stroke-miterlimit="13.654" stroke-width="2.702"/><path d="M201.28 143.76h5.066v1.004h-3.873v2.597h3.495v1.004h-3.495v4.21h-1.193v-8.815zm7.085 0h4.682v1.004h-3.59v2.16a3.36 3.36 0 0 1 .52-.132c.173-.03.346-.045.52-.045.983 0 1.763.27 2.337.81.575.539.862 1.269.862 2.19 0 .948-.295 1.685-.885 2.21-.59.526-1.423.789-2.498.789-.37 0-.747-.031-1.13-.094a9.014 9.014 0 0 1-1.19-.284v-1.198a4.646 4.646 0 0 0 2.297.572c.68 0 1.22-.179 1.617-.537.398-.358.597-.844.597-1.458s-.2-1.1-.597-1.459c-.397-.358-.936-.537-1.617-.537-.32 0-.637.036-.954.106a5.07 5.07 0 0 0-.971.331v-4.428zm42.295 0h5.066v1.004h-3.873v2.597h3.495v1.004h-3.495v4.21h-1.193v-8.815zm9.771 3.932c-.535 0-.96.183-1.272.55-.313.365-.47.867-.47 1.505 0 .633.157 1.134.47 1.502.313.368.737.552 1.272.552s.96-.184 1.273-.552c.312-.368.469-.869.469-1.502 0-.638-.157-1.14-.47-1.506-.312-.366-.737-.549-1.272-.549zm2.368-3.737v1.086a4.79 4.79 0 0 0-.907-.325 3.797 3.797 0 0 0-.906-.112c-.787 0-1.388.266-1.804.797-.415.532-.652 1.335-.71 2.41.231-.343.523-.606.873-.79a2.46 2.46 0 0 1 1.157-.274c.886 0 1.585.269 2.099.806.514.538.77 1.269.77 2.194 0 .905-.267 1.631-.803 2.178-.535.547-1.247.82-2.137.82-1.02 0-1.799-.39-2.338-1.171-.54-.781-.809-1.914-.809-3.398 0-1.393.33-2.504.992-3.333.661-.828 1.55-1.243 2.663-1.243.3 0 .601.03.906.089.305.059.623.148.954.266zm36.511-.195h5.066v1.004h-3.873v2.597h3.495v1.004h-3.495v4.21h-1.193v-8.815zm6.772 0h5.668v.508l-3.2 8.307h-1.246l3.011-7.811h-4.233v-1.004zm39.828 0h5.066v1.004h-3.873v2.597h3.495v1.004h-3.495v4.21h-1.193v-8.815zm9.624 4.629c-.567 0-1.013.151-1.338.454-.324.303-.487.72-.487 1.252 0 .531.163.949.487 1.252.325.303.77.454 1.338.454.567 0 1.013-.152 1.34-.457.327-.305.49-.721.49-1.249 0-.531-.162-.948-.487-1.252-.325-.303-.773-.454-1.343-.454zm-1.193-.508c-.512-.126-.91-.364-1.196-.714-.285-.35-.428-.778-.428-1.282 0-.704.251-1.261.753-1.67.502-.41 1.19-.614 2.064-.614.877 0 1.566.204 2.066.614.5.409.75.966.75 1.67 0 .504-.143.931-.428 1.282-.285.35-.682.588-1.19.714.575.134 1.023.396 1.343.785.321.39.482.866.482 1.429 0 .854-.261 1.51-.783 1.966-.521.457-1.268.685-2.24.685s-1.72-.228-2.24-.685c-.522-.456-.783-1.112-.783-1.966 0-.563.161-1.04.484-1.429.323-.39.771-.651 1.346-.785zm-.437-1.883c0 .456.143.812.428 1.068.286.256.686.384 1.202.384.511 0 .912-.128 1.201-.384.29-.256.434-.612.434-1.068 0-.457-.144-.813-.434-1.07-.29-.255-.69-.383-1.201-.383-.516 0-.916.128-1.202.384-.285.256-.428.612-.428 1.069z" fill="#fff"/><path d="M390.13 138.11h31.971c3.119 0 5.63 2.246 5.63 5.035V168.2c0 2.79-2.511 5.035-5.63 5.035H390.13c-3.119 0-5.63-2.245-5.63-5.035v-25.054c0-2.79 2.511-5.035 5.63-5.035zm47.64 0h31.971c3.119 0 5.63 2.246 5.63 5.035V168.2c0 2.79-2.511 5.035-5.63 5.035H437.77c-3.119 0-5.63-2.245-5.63-5.035v-25.054c0-2.79 2.511-5.035 5.63-5.035z" fill="#2f2930" stroke="#fff" stroke-linecap="round" stroke-linejoin="round" stroke-miterlimit="13.654" stroke-width="2.702"/><path d="M392.39 143.76h5.066v1.004h-3.873v2.597h3.495v1.004h-3.495v4.21h-1.193v-8.815zm7.109 8.632v-1.087c.299.142.602.25.909.325.307.075.608.112.903.112.787 0 1.388-.264 1.804-.794.415-.53.652-1.333.711-2.412a2.32 2.32 0 0 1-.868.78c-.35.18-.738.271-1.163.271-.881 0-1.58-.266-2.093-.8-.513-.533-.77-1.262-.77-2.187 0-.906.267-1.632.803-2.179.535-.547 1.247-.82 2.137-.82 1.02 0 1.798.39 2.335 1.171.537.782.806 1.916.806 3.404 0 1.39-.33 2.499-.989 3.327-.66.829-1.546 1.243-2.66 1.243a4.81 4.81 0 0 1-.909-.089 6.5 6.5 0 0 1-.956-.265zm2.373-3.738c.535 0 .96-.183 1.272-.549.313-.366.47-.868.47-1.505 0-.634-.157-1.135-.47-1.503-.313-.368-.737-.552-1.272-.552s-.96.184-1.272.552c-.313.368-.47.87-.47 1.503 0 .637.157 1.14.47 1.505.312.366.737.55 1.272.55z" fill="#fff"/><path d="M485.41 138.11h31.971c3.119 0 5.63 2.246 5.63 5.035V168.2c0 2.79-2.511 5.035-5.63 5.035H485.41c-3.119 0-5.63-2.245-5.63-5.035v-25.054c0-2.79 2.511-5.035 5.63-5.035z" fill="#2f2930" stroke="#fff" stroke-linecap="round" stroke-linejoin="round" stroke-miterlimit="13.654" stroke-width="2.702"/><path d="M441.77 143.76h5.066v1.004h-3.873v2.597h3.495v1.004h-3.495v4.21h-1.193v-8.815zm7.28 7.811h1.948v-6.725l-2.12.425v-1.086l2.108-.425h1.193v7.811h1.948v1.004h-5.077v-1.004zm10.043-7.026c-.614 0-1.076.302-1.385.907-.309.604-.463 1.512-.463 2.724 0 1.209.154 2.115.463 2.72.31.603.77.905 1.385.905.618 0 1.081-.302 1.39-.906.31-.604.464-1.51.464-2.719 0-1.212-.155-2.12-.464-2.724-.309-.605-.772-.907-1.39-.907zm0-.944c.988 0 1.742.39 2.264 1.172.521.78.782 1.915.782 3.403 0 1.484-.26 2.617-.782 3.398-.522.781-1.276 1.172-2.264 1.172-.988 0-1.743-.39-2.265-1.172-.521-.781-.782-1.914-.782-3.398 0-1.488.26-2.622.782-3.403.522-.782 1.277-1.172 2.265-1.172z" fill="#fff"/><path d="M533.05 138.11h31.971c3.119 0 5.63 2.246 5.63 5.035V168.2c0 2.79-2.511 5.035-5.63 5.035H533.05c-3.119 0-5.63-2.245-5.63-5.035v-25.054c0-2.79 2.511-5.035 5.63-5.035z" fill="#2f2930" stroke="#fff" stroke-linecap="round" stroke-linejoin="round" stroke-miterlimit="13.654" stroke-width="2.702"/><path d="M491.35 143.94h5.066v1.004h-3.873v2.598h3.495v1.003h-3.495v4.21h-1.193v-8.815zm7.28 7.811h1.948v-6.725l-2.12.425v-1.086l2.108-.425h1.193v7.811h1.948v1.004h-5.077v-1.004zm7.699 0h1.948v-6.725l-2.12.425v-1.086l2.108-.425h1.193v7.811h1.948v1.004h-5.077v-1.004zm28.801-7.811h5.066v1.004h-3.874v2.598h3.496v1.003h-3.496v4.21h-1.192v-8.815zm7.28 7.811h1.948v-6.725l-2.12.425v-1.086l2.108-.425h1.193v7.811h1.948v1.004h-5.077v-1.004zm8.52 0h4.162v1.004h-5.597v-1.004c.452-.468 1.07-1.097 1.85-1.886.782-.79 1.273-1.298 1.474-1.527.382-.429.648-.792.8-1.089a1.92 1.92 0 0 0 .227-.877c0-.468-.164-.85-.493-1.145-.329-.295-.757-.443-1.284-.443-.374 0-.769.065-1.184.195-.415.13-.859.327-1.331.59v-1.204c.48-.193.929-.338 1.346-.437a5.04 5.04 0 0 1 1.145-.147c.913 0 1.642.228 2.185.684.543.457.815 1.067.815 1.83 0 .363-.068.706-.204 1.031-.136.325-.383.708-.741 1.148a35.83 35.83 0 0 1-.939.99c-.527.544-1.271 1.307-2.232 2.287z" fill="#fff"/><path d="M580.69 138.11h31.971c3.119 0 5.63 2.246 5.63 5.035V168.2c0 2.79-2.511 5.035-5.63 5.035H580.69c-3.119 0-5.63-2.245-5.63-5.035v-25.054c0-2.79 2.511-5.035 5.63-5.035zm47.64 0h31.971c3.119 0 5.63 2.246 5.63 5.035V168.2c0 2.79-2.511 5.035-5.63 5.035H628.33c-3.119 0-5.63-2.245-5.63-5.035v-25.054c0-2.79 2.511-5.035 5.63-5.035z" fill="#2f2930" stroke="#fff" stroke-linecap="round" stroke-linejoin="round" stroke-miterlimit="13.654" stroke-width="2.702"/><path d="M630.43 145.96v5.36h1.127c.95 0 1.647-.215 2.09-.646.44-.43.662-1.11.662-2.04 0-.924-.221-1.6-.663-2.03-.442-.43-1.138-.644-2.09-.644h-1.126zm-.933-.766h1.917c1.335 0 2.316.277 2.94.833.626.556.938 1.424.938 2.607 0 1.188-.314 2.06-.942 2.618-.628.557-1.607.835-2.936.835h-1.917v-6.894zm11.664 4.095v.416h-3.906c.037.585.213 1.03.529 1.336.315.307.755.46 1.318.46.326 0 .642-.04.949-.12.306-.08.61-.2.912-.36v.803a5.08 5.08 0 0 1-.938.296c-.32.067-.645.101-.974.101-.825 0-1.478-.24-1.96-.72s-.723-1.13-.723-1.949c0-.846.229-1.518.686-2.015.457-.497 1.074-.746 1.85-.746.695 0 1.245.224 1.65.672.405.448.607 1.057.607 1.826zm-.85-.25c-.006-.464-.136-.835-.39-1.112-.253-.277-.59-.415-1.008-.415-.474 0-.854.133-1.139.401-.284.268-.448.645-.491 1.132l3.029-.005zm2.245-4.136h.85v7.184h-.85v-7.184zm7.046 4.386v.416h-3.906c.037.585.213 1.03.528 1.337.316.306.755.459 1.319.459.326 0 .642-.04.949-.12.306-.08.61-.2.911-.36v.803c-.304.13-.617.228-.937.296-.32.067-.645.101-.974.101-.825 0-1.478-.24-1.96-.72s-.723-1.13-.723-1.949c0-.846.229-1.518.686-2.015.457-.497 1.073-.746 1.849-.746.696 0 1.246.224 1.65.672.406.448.608 1.057.608 1.826zm-.85-.249c-.006-.465-.136-.836-.39-1.113s-.59-.415-1.009-.415c-.474 0-.853.134-1.138.401-.285.268-.449.645-.492 1.132l3.03-.005zm3.085-3.592v1.468h1.75v.66h-1.75v2.808c0 .421.058.692.173.812.115.12.35.18.704.18h.873v.711h-.873c-.656 0-1.108-.122-1.357-.367-.25-.244-.374-.69-.374-1.336v-2.808h-.624v-.66h.624v-1.468h.854zm7.295 3.841v.416h-3.906c.037.585.213 1.03.529 1.337.315.306.755.459 1.318.459.326 0 .643-.04.949-.12.306-.08.61-.2.912-.36v.803a5.07 5.07 0 0 1-.937.296c-.32.067-.645.101-.975.101-.825 0-1.478-.24-1.96-.72s-.722-1.13-.722-1.949c0-.846.228-1.518.685-2.015.457-.497 1.074-.746 1.85-.746.695 0 1.245.224 1.65.672.405.448.607 1.057.607 1.826zm-.85-.249c-.005-.465-.135-.836-.39-1.113-.253-.277-.59-.415-1.008-.415-.474 0-.854.134-1.138.401-.285.268-.45.645-.492 1.132l3.029-.005z" fill="#fff"/><path d="M675.97 138.11h31.971c3.119 0 5.63 2.246 5.63 5.035V168.2c0 2.79-2.511 5.035-5.63 5.035H675.97c-3.119 0-5.63-2.245-5.63-5.035v-25.054c0-2.79 2.511-5.035 5.63-5.035z" fill="#2f2930" stroke="#fff" stroke-linecap="round" stroke-linejoin="round" stroke-miterlimit="13.654" stroke-width="2.702"/><path d="M678.96 144.9h.933v6.894h-.933V144.9zm7.05 3.772v3.122h-.849V148.7c0-.49-.095-.856-.286-1.099-.19-.243-.477-.365-.859-.365-.458 0-.82.147-1.085.44-.265.292-.397.69-.397 1.195v2.923h-.854v-5.172h.854v.804c.203-.311.442-.544.718-.698.275-.153.593-.23.953-.23.595 0 1.044.184 1.349.551.305.368.457.91.457 1.623zm5.002-1.897v.803a3.318 3.318 0 0 0-1.552-.37c-.422 0-.738.065-.949.195a.638.638 0 0 0-.316.582c0 .197.075.351.226.464.151.112.454.219.91.32l.29.065c.604.13 1.033.312 1.287.547.254.236.38.564.38.986 0 .48-.19.86-.57 1.14-.38.28-.902.42-1.567.42-.277 0-.566-.026-.866-.08a7.23 7.23 0 0 1-.949-.242v-.878c.314.163.624.286.928.367.305.082.607.123.905.123.4 0 .708-.069.924-.206a.65.65 0 0 0 .323-.58c0-.23-.078-.407-.233-.53-.156-.123-.497-.242-1.023-.356l-.295-.07c-.527-.11-.907-.28-1.141-.51-.234-.229-.35-.543-.35-.944 0-.486.172-.862.516-1.126.345-.265.834-.397 1.469-.397.314 0 .61.023.886.069.277.046.533.115.767.208zm6.058 2.22v.416h-3.907c.037.585.213 1.03.529 1.337.315.306.755.46 1.318.46.327 0 .643-.04.95-.12.305-.08.61-.2.911-.36v.803a5.066 5.066 0 0 1-.937.295c-.32.068-.645.102-.975.102-.825 0-1.478-.24-1.96-.72-.481-.48-.722-1.13-.722-1.95 0-.846.228-1.518.685-2.015.457-.497 1.074-.745 1.85-.745.695 0 1.246.224 1.65.672.405.447.608 1.056.608 1.826zm-.85-.249c-.006-.464-.136-.835-.39-1.112-.254-.277-.59-.416-1.009-.416-.474 0-.854.134-1.138.402-.285.268-.449.645-.492 1.131l3.029-.005zm5.24-1.33a1.127 1.127 0 0 0-.31-.122 1.641 1.641 0 0 0-.373-.039c-.48 0-.848.156-1.106.469-.257.312-.385.76-.385 1.346v2.724h-.854v-5.172h.854v.804c.179-.314.41-.547.697-.7.286-.152.634-.228 1.044-.228.058 0 .123.004.194.011.07.008.149.02.235.035l.005.873zm1.742-2.262v1.469h1.75v.66h-1.75v2.807c0 .422.057.693.173.813.115.12.35.18.704.18h.873v.711h-.873c-.656 0-1.108-.122-1.358-.367-.249-.245-.374-.69-.374-1.337v-2.807h-.623v-.66h.623v-1.469h.855z" fill="#fff"/><path d="M723.61 138.11h31.971c3.119 0 5.63 2.246 5.63 5.035V168.2c0 2.79-2.511 5.035-5.63 5.035H723.61c-3.119 0-5.63-2.245-5.63-5.035v-25.054c0-2.79 2.511-5.035 5.63-5.035z" fill="#2f2930" stroke="#fff" stroke-linecap="round" stroke-linejoin="round" stroke-miterlimit="13.654" stroke-width="2.702"/><path d="M725.47 145.77v2.96h1.34c.496 0 .88-.128 1.15-.385.272-.257.407-.622.407-1.097 0-.472-.135-.836-.406-1.093s-.655-.385-1.15-.385h-1.341zm-1.066-.876h2.406c.884 0 1.551.2 2.003.599.452.4.678.984.678 1.755 0 .777-.226 1.365-.678 1.762-.452.398-1.12.596-2.003.596h-1.34v3.167h-1.066v-7.879zm9.166 4.908c-.784 0-1.328.09-1.63.269-.303.18-.454.485-.454.918 0 .345.113.618.34.82s.536.304.927.304c.538 0 .97-.19 1.295-.572.325-.382.488-.89.488-1.523v-.216h-.966zm1.937-.401v3.372h-.97v-.897c-.222.358-.499.623-.83.794s-.735.256-1.213.256c-.605 0-1.086-.17-1.443-.51-.357-.339-.536-.794-.536-1.364 0-.665.223-1.166.668-1.504.445-.337 1.109-.506 1.992-.506h1.361v-.095c0-.447-.147-.793-.44-1.037-.294-.245-.707-.367-1.238-.367a3.914 3.914 0 0 0-1.91.485v-.897c.355-.137.7-.24 1.034-.308.334-.069.66-.103.976-.103.855 0 1.494.221 1.916.665.422.443.633 1.115.633 2.016zm1.905 1.04v-3.578h.971v3.54c0 .56.11.98.327 1.259.218.28.546.42.982.42.524 0 .938-.168 1.243-.502.304-.334.456-.79.456-1.367v-3.35h.971v5.91h-.97v-.908c-.237.359-.51.625-.821.8a2.185 2.185 0 0 1-1.085.26c-.679 0-1.194-.21-1.546-.633-.352-.422-.528-1.04-.528-1.852zm10.728-3.404v.918a3.793 3.793 0 0 0-1.773-.422c-.482 0-.843.074-1.084.221a.73.73 0 0 0-.362.665c0 .225.086.402.259.53.172.129.519.251 1.04.367l.332.074c.69.148 1.18.356 1.47.626.29.269.435.644.435 1.126 0 .549-.217.984-.652 1.304-.434.32-1.032.48-1.791.48-.317 0-.647-.031-.99-.093s-.704-.153-1.084-.277v-1.002c.358.186.712.326 1.06.42.349.092.693.14 1.035.14.457 0 .809-.08 1.055-.236a.743.743 0 0 0 .37-.662c0-.264-.09-.466-.267-.607-.178-.14-.567-.276-1.169-.406l-.338-.08c-.601-.126-1.036-.32-1.303-.583-.268-.262-.401-.621-.401-1.079 0-.556.197-.985.59-1.287.395-.303.954-.454 1.679-.454.359 0 .697.026 1.013.079.317.053.609.132.876.238zm6.924 2.538v.475h-4.465c.043.668.244 1.177.605 1.527.36.35.862.526 1.506.526.373 0 .735-.046 1.085-.138.35-.091.697-.228 1.042-.411v.918c-.349.148-.706.26-1.071.338a5.366 5.366 0 0 1-1.114.116c-.943 0-1.69-.275-2.24-.823-.55-.55-.826-1.292-.826-2.227 0-.968.261-1.736.784-2.304.522-.568 1.227-.852 2.113-.852.795 0 1.424.256 1.887.768.462.512.694 1.207.694 2.087zm-.971-.285c-.007-.531-.156-.955-.446-1.272-.29-.317-.675-.475-1.153-.475-.542 0-.976.153-1.301.46-.325.305-.513.736-.562 1.292l3.462-.005zm-28.623 10.528v2.886h1.71c.573 0 .998-.118 1.274-.356.276-.237.414-.6.414-1.09 0-.492-.138-.855-.414-1.09-.276-.233-.701-.35-1.274-.35h-1.71zm0-3.24v2.374h1.578c.52 0 .908-.097 1.163-.292.255-.196.383-.494.383-.895 0-.397-.128-.695-.383-.892-.255-.197-.643-.295-1.163-.295h-1.578zm-1.066-.876h2.723c.813 0 1.439.169 1.878.506.44.338.66.818.66 1.441 0 .482-.112.865-.338 1.15-.225.285-.555.463-.992.533.524.113.932.348 1.222.705.29.357.435.803.435 1.338 0 .703-.239 1.247-.717 1.63-.479.384-1.16.575-2.043.575h-2.828v-7.878zm10.792 2.876a1.285 1.285 0 0 0-.356-.14 1.876 1.876 0 0 0-.425-.045c-.549 0-.97.179-1.264.536-.294.357-.44.87-.44 1.538v3.114h-.977v-5.91h.976v.917a1.99 1.99 0 0 1 .797-.799c.327-.174.725-.261 1.193-.261.067 0 .14.004.221.013.081.009.171.022.27.04l.005.997zm6.084 1.804v.475h-4.464c.042.669.244 1.178.604 1.528.36.35.863.525 1.507.525a4.27 4.27 0 0 0 1.084-.137 4.82 4.82 0 0 0 1.042-.412v.919a5.85 5.85 0 0 1-1.07.337 5.365 5.365 0 0 1-1.114.116c-.943 0-1.69-.274-2.24-.823-.55-.549-.826-1.29-.826-2.227 0-.967.26-1.735.783-2.303.523-.568 1.227-.852 2.114-.852.795 0 1.424.256 1.886.767.463.512.694 1.208.694 2.088zm-.97-.284c-.008-.532-.156-.956-.446-1.272-.29-.317-.675-.475-1.154-.475-.541 0-.975.153-1.3.459-.326.306-.513.737-.562 1.293l3.461-.005zm5.25.511c-.784 0-1.328.09-1.63.27-.303.179-.454.485-.454.918 0 .345.113.618.34.82.227.203.536.304.926.304.538 0 .97-.191 1.296-.573.325-.381.488-.889.488-1.522v-.217h-.966zm1.937-.4v3.371h-.971v-.897a2.115 2.115 0 0 1-.829.795c-.33.17-.735.255-1.213.255-.605 0-1.087-.17-1.444-.509-.357-.34-.535-.794-.535-1.364 0-.665.222-1.166.667-1.504.445-.338 1.11-.506 1.992-.506h1.362v-.095c0-.447-.147-.793-.44-1.037-.294-.245-.707-.367-1.238-.367a3.913 3.913 0 0 0-1.91.485v-.897c.355-.137.7-.24 1.034-.309a4.85 4.85 0 0 1 .976-.102c.855 0 1.494.221 1.916.665.422.443.633 1.115.633 2.015zm1.968-4.84h.977v4.85l2.897-2.549h1.24l-3.135 2.765 3.267 3.145h-1.267l-3.002-2.886v2.886h-.977v-8.21z" fill="#fff"/><path d="M11.953 179.52h34.673c3.119 0 5.63 2.246 5.63 5.035v35.862c0 2.79-2.511 5.035-5.63 5.035H11.953c-3.119 0-5.63-2.245-5.63-5.035v-35.862c0-2.79 2.511-5.035 5.63-5.035z" fill="#2f2930" stroke="#fff" stroke-linecap="round" stroke-linejoin="round" stroke-miterlimit="13.654" stroke-width="2.702"/><path d="M16.834 196.57h1.198v1.5h-1.198v-1.5zm0-7.315h1.198v3.867l-.118 2.108h-.956l-.124-2.108v-3.867zM15.08 212.18h1.949v-6.725l-2.12.425v-1.086l2.108-.425h1.193v7.81h1.948v1.004h-5.077v-1.003z" fill="#fff"/><path d="M62.54 179.52h34.673c3.119 0 5.63 2.246 5.63 5.035v35.862c0 2.79-2.511 5.035-5.63 5.035H62.54c-3.119 0-5.63-2.245-5.63-5.035v-35.862c0-2.79 2.511-5.035 5.63-5.035z" fill="#2f2930" stroke="#fff" stroke-linecap="round" stroke-linejoin="round" stroke-miterlimit="13.654" stroke-width="2.702"/><path d="M67.892 189.25v3.277h-1.004v-3.277h1.004zm2.232 0v3.277H69.12v-3.277h1.004zm-3.141 22.926h4.162v1.004h-5.597v-1.004a247.45 247.45 0 0 1 1.851-1.886c.781-.79 1.272-1.298 1.473-1.527.382-.429.649-.792.8-1.089a1.92 1.92 0 0 0 .227-.877c0-.468-.164-.85-.493-1.145-.328-.295-.756-.443-1.284-.443-.374 0-.768.065-1.184.195-.415.13-.859.327-1.33.59v-1.204c.48-.193.928-.339 1.345-.437a5.026 5.026 0 0 1 1.146-.148c.913 0 1.64.229 2.184.685.543.457.815 1.067.815 1.83 0 .363-.068.706-.204 1.03-.136.326-.383.708-.74 1.15-.1.113-.412.443-.94.988a536.9 536.9 0 0 1-2.231 2.288z" fill="#fff"/><path d="M113.13 179.52h34.673c3.119 0 5.63 2.246 5.63 5.035v35.862c0 2.79-2.511 5.035-5.63 5.035H113.13c-3.119 0-5.63-2.245-5.63-5.035v-35.862c0-2.79 2.511-5.035 5.63-5.035z" fill="#2f2930" stroke="#fff" stroke-linecap="round" stroke-linejoin="round" stroke-miterlimit="13.654" stroke-width="2.702"/><path d="M121.32 189.28v1.075a4.606 4.606 0 0 0-.85-.363 2.64 2.64 0 0 0-.762-.122c-.582 0-.988.153-1.216.458-.228.305-.342.875-.342 1.71v1.269h2.308v.844h-2.308v2.745h3.288v1.004h-5.863v-1.004h1.394v-2.745h-1.175v-.844h1.175V191.9c0-1.027.21-1.78.632-2.258.42-.478 1.088-.717 2-.717.241 0 .51.03.807.091.297.061.601.149.912.263zm-1.6 18.982c.57.122 1.016.376 1.337.762.321.385.481.862.481 1.428 0 .87-.299 1.543-.897 2.02-.598.476-1.449.714-2.55.714-.37 0-.751-.036-1.143-.11a8.29 8.29 0 0 1-1.213-.327v-1.151c.33.193.692.338 1.086.437a5.07 5.07 0 0 0 1.234.147c.748 0 1.318-.147 1.71-.443.39-.295.587-.724.587-1.287 0-.52-.182-.926-.546-1.219-.365-.293-.871-.44-1.52-.44h-1.028v-.98h1.074c.587 0 1.036-.117 1.347-.351.31-.234.466-.572.466-1.013 0-.452-.16-.8-.481-1.042-.321-.242-.78-.363-1.379-.363a5.66 5.66 0 0 0-1.05.107c-.375.07-.786.18-1.235.33v-1.062c.453-.126.877-.22 1.273-.284a7.13 7.13 0 0 1 1.118-.094c.906 0 1.622.205 2.15.617.527.411.79.967.79 1.668 0 .488-.14.9-.419 1.236-.279.337-.677.57-1.192.7z" fill="#fff"/><path d="M163.71 179.52h34.673c3.119 0 5.63 2.246 5.63 5.035v35.862c0 2.79-2.511 5.035-5.63 5.035H163.71c-3.119 0-5.63-2.245-5.63-5.035v-35.862c0-2.79 2.511-5.035 5.63-5.035z" fill="#2f2930" stroke="#fff" stroke-linecap="round" stroke-linejoin="round" stroke-miterlimit="13.654" stroke-width="2.702"/><path d="M169.17 199.85h-.59l-.006-1.777a6.499 6.499 0 0 1-1.24-.145 6.872 6.872 0 0 1-1.246-.398v-1.063c.402.252.808.442 1.22.57.41.128.835.194 1.272.198v-2.693c-.87-.141-1.503-.382-1.899-.72-.395-.339-.593-.803-.593-1.393 0-.642.215-1.148.644-1.518s1.045-.582 1.848-.637v-1.388h.59v1.37c.366.016.72.054 1.063.115.342.061.677.145 1.003.251v1.033a5.014 5.014 0 0 0-2.066-.543v2.521c.893.138 1.55.384 1.972.738.421.354.632.839.632 1.453 0 .665-.224 1.19-.67 1.573-.447.384-1.092.605-1.934.664v1.79zm-.59-6.323v-2.421c-.457.051-.805.181-1.045.39-.24.208-.36.486-.36.832 0 .339.11.602.333.791.222.19.58.325 1.072.408zm.59 1.133v2.557c.5-.067.877-.209 1.13-.425s.381-.502.381-.856c0-.347-.12-.622-.363-.827-.242-.205-.625-.354-1.148-.449zm.484 10.751l-3.011 4.706h3.011v-4.706zm-.313-1.039h1.5v5.745h1.257v.992h-1.257v2.078h-1.187v-2.078h-3.98v-1.152l3.667-5.585z" fill="#fff"/><path d="M214.3 179.52h34.673c3.119 0 5.63 2.246 5.63 5.035v35.862c0 2.79-2.511 5.035-5.63 5.035H214.3c-3.119 0-5.63-2.245-5.63-5.035v-35.862c0-2.79 2.511-5.035 5.63-5.035z" fill="#2f2930" stroke="#fff" stroke-linecap="round" stroke-linejoin="round" stroke-miterlimit="13.654" stroke-width="2.702"/><path d="M224.38 194.02a.92.92 0 0 0-.806.437c-.195.291-.292.697-.292 1.216 0 .512.097.914.292 1.207.195.294.464.44.806.44.335 0 .6-.146.794-.44.195-.293.292-.695.292-1.207 0-.516-.097-.92-.292-1.213-.195-.293-.46-.44-.794-.44zm0-.75c.622 0 1.116.217 1.482.65.366.433.549 1.017.549 1.753s-.184 1.32-.552 1.75-.861.647-1.48.647c-.629 0-1.127-.215-1.493-.646-.366-.431-.549-1.015-.549-1.75 0-.74.184-1.326.552-1.757.368-.431.865-.647 1.491-.647zm-6.093-3.595c-.338 0-.605.146-.8.44-.195.293-.292.695-.292 1.207 0 .52.096.925.29 1.216a.91.91 0 0 0 .802.437.92.92 0 0 0 .806-.437c.195-.291.292-.697.292-1.216 0-.508-.098-.91-.295-1.205-.197-.295-.465-.442-.803-.442zm5.331-.75h.945l-5.514 9.145h-.945l5.514-9.145zm-5.331 0c.622 0 1.118.215 1.488.646.37.431.555 1.015.555 1.75 0 .745-.184 1.331-.552 1.76-.368.43-.865.644-1.491.644-.626 0-1.12-.216-1.485-.647-.364-.43-.546-1.016-.546-1.756 0-.732.183-1.315.55-1.748.365-.433.86-.65 1.481-.65zm.508 15.274h4.682v1.004h-3.59v2.16a3.277 3.277 0 0 1 1.04-.177c.983 0 1.762.27 2.337.81.575.538.862 1.269.862 2.19 0 .948-.295 1.685-.885 2.21-.59.526-1.423.789-2.498.789-.37 0-.747-.032-1.13-.095a9.018 9.018 0 0 1-1.19-.283v-1.199a4.649 4.649 0 0 0 2.297.573c.68 0 1.22-.179 1.617-.537.398-.358.597-.844.597-1.458s-.2-1.1-.597-1.459c-.397-.358-.937-.537-1.617-.537-.32 0-.637.035-.954.106-.317.071-.64.181-.971.33V204.2z" fill="#fff"/><path d="M264.89 179.52h34.673c3.119 0 5.63 2.246 5.63 5.035v35.862c0 2.79-2.511 5.035-5.63 5.035H264.89c-3.119 0-5.63-2.245-5.63-5.035v-35.862c0-2.79 2.511-5.035 5.63-5.035z" fill="#2f2930" stroke="#fff" stroke-linecap="round" stroke-linejoin="round" stroke-miterlimit="13.654" stroke-width="2.702"/><path d="M271.55 189.08l3.206 3.289h-1.187l-2.598-2.332-2.597 2.332h-1.187l3.206-3.289h1.157zm-.437 19.046c-.535 0-.96.183-1.272.55-.313.365-.47.867-.47 1.505 0 .633.157 1.134.47 1.502.313.368.737.552 1.272.552s.96-.184 1.272-.552c.313-.368.47-.869.47-1.502 0-.638-.157-1.14-.47-1.506-.312-.366-.737-.549-1.272-.549zm2.368-3.737v1.086a4.79 4.79 0 0 0-.907-.325 3.795 3.795 0 0 0-.906-.112c-.787 0-1.388.266-1.804.797-.415.532-.652 1.335-.711 2.41.232-.343.523-.606.874-.79a2.46 2.46 0 0 1 1.157-.274c.886 0 1.585.269 2.099.806.513.538.77 1.269.77 2.194 0 .905-.267 1.631-.803 2.178-.535.547-1.247.82-2.137.82-1.02 0-1.799-.39-2.338-1.171-.54-.781-.809-1.914-.809-3.398 0-1.393.33-2.504.992-3.333.661-.828 1.549-1.242 2.663-1.242.299 0 .601.03.906.088.305.06.623.148.954.266z" fill="#fff"/><path d="M315.47 179.52h34.673c3.119 0 5.63 2.246 5.63 5.035v35.862c0 2.79-2.511 5.035-5.63 5.035H315.47c-3.119 0-5.63-2.245-5.63-5.035v-35.862c0-2.79 2.511-5.035 5.63-5.035z" fill="#2f2930" stroke="#fff" stroke-linecap="round" stroke-linejoin="round" stroke-miterlimit="13.654" stroke-width="2.702"/><path d="M318.83 193.33c-.358.319-.62.637-.788.954s-.251.648-.251.994c0 .575.209 1.053.626 1.435.417.382.94.573 1.57.573.374 0 .724-.062 1.051-.186.327-.124.634-.312.921-.564l-3.129-3.206zm.833-.661l2.999 3.07c.232-.35.413-.725.543-1.125s.207-.824.23-1.272h1.098a5.418 5.418 0 0 1-.378 1.54 6.867 6.867 0 0 1-.856 1.506l1.648 1.683h-1.488l-.844-.868c-.41.35-.839.611-1.288.782a4 4 0 0 1-1.446.257c-.949 0-1.724-.27-2.326-.812s-.904-1.234-.904-2.08c0-.505.132-.978.396-1.42.264-.444.66-.86 1.187-1.25a3.179 3.179 0 0 1-.431-.74 1.939 1.939 0 0 1-.148-.724c0-.637.219-1.15.655-1.538.437-.387 1.018-.581 1.742-.581.327 0 .653.035.977.106.325.07.655.177.99.319v1.074a5.511 5.511 0 0 0-.98-.422 2.964 2.964 0 0 0-.869-.144c-.413 0-.749.109-1.006.327a1.06 1.06 0 0 0-.387.847c0 .201.058.403.174.606.116.202.353.489.711.859zm-1.92 11.702h5.669v.507l-3.2 8.307h-1.246l3.01-7.81h-4.232v-1.004z" fill="#fff"/><path d="M366.06 179.52h34.673c3.119 0 5.63 2.246 5.63 5.035v35.862c0 2.79-2.511 5.035-5.63 5.035H366.06c-3.119 0-5.63-2.245-5.63-5.035v-35.862c0-2.79 2.511-5.035 5.63-5.035z" fill="#2f2930" stroke="#fff" stroke-linecap="round" stroke-linejoin="round" stroke-miterlimit="13.654" stroke-width="2.702"/><path d="M374.75 190.53l-2.12 1.145 2.12 1.152-.342.578-1.984-1.198v2.226h-.673v-2.226l-1.984 1.198-.342-.578 2.12-1.152-2.12-1.145.342-.585 1.984 1.199v-2.226h.673v2.226l1.984-1.198.342.584zm-2.669 18.291c-.566 0-1.012.152-1.337.455-.325.303-.487.72-.487 1.251 0 .532.162.949.487 1.252.325.303.77.455 1.337.455s1.014-.153 1.34-.458c.327-.305.49-.721.49-1.249 0-.531-.162-.948-.487-1.251-.324-.303-.772-.455-1.343-.455zm-1.192-.508c-.512-.126-.91-.364-1.196-.714-.285-.35-.428-.777-.428-1.281 0-.705.25-1.262.753-1.671.502-.41 1.19-.614 2.063-.614.878 0 1.567.205 2.067.614.5.41.75.966.75 1.67 0 .505-.143.932-.429 1.282-.285.35-.681.588-1.19.714.575.134 1.023.396 1.344.786.32.39.481.865.481 1.428 0 .854-.26 1.51-.782 1.966-.522.457-1.269.685-2.24.685s-1.72-.228-2.241-.685c-.522-.456-.783-1.111-.783-1.966 0-.563.162-1.039.484-1.428.323-.39.772-.652 1.347-.786zm-.437-1.883c0 .456.142.813.428 1.068.285.256.686.384 1.201.384.512 0 .912-.128 1.202-.383.29-.256.434-.613.434-1.07s-.145-.812-.434-1.068c-.29-.256-.69-.383-1.202-.383-.515 0-.916.127-1.201.383-.286.256-.428.612-.428 1.069z" fill="#fff"/><path d="M517.82 179.52h34.673c3.119 0 5.63 2.246 5.63 5.035v35.862c0 2.79-2.511 5.035-5.63 5.035H517.82c-3.119 0-5.63-2.245-5.63-5.035v-35.862c0-2.79 2.511-5.035 5.63-5.035z" fill="#2f2930" stroke="#fff" stroke-linecap="round" stroke-linejoin="round" stroke-miterlimit="13.654" stroke-width="2.702"/><path d="M529.51 193.65v1.444h-10.746v-1.444h10.746zm-8.1 15.927h5.444v1.656h-5.444v-1.656z" fill="#fff"/><path d="M568.4 179.52h34.673c3.119 0 5.63 2.246 5.63 5.035v35.862c0 2.79-2.511 5.035-5.63 5.035H568.4c-3.119 0-5.63-2.245-5.63-5.035v-35.862c0-2.79 2.511-5.035 5.63-5.035z" fill="#2f2930" stroke="#fff" stroke-linecap="round" stroke-linejoin="round" stroke-miterlimit="13.654" stroke-width="2.702"/><path d="M576.67 192.3v3.289h3.289v1.003h-3.289v3.289h-.992v-3.289h-3.288v-1.003h3.288V192.3h.992zm-4.28 17.204h7.569v.992h-7.57v-.992zm0 2.409h7.569v1.004h-7.57v-1.004z" fill="#fff"/><path d="M618.99 179.52h86.008c3.119 0 5.63 2.246 5.63 5.035v35.862c0 2.79-2.511 5.035-5.63 5.035H618.99c-3.119 0-5.63-2.245-5.63-5.035v-35.862c0-2.79 2.511-5.035 5.63-5.035z" fill="#2f2930" stroke="#fff" stroke-linecap="round" stroke-linejoin="round" stroke-miterlimit="13.654" stroke-width="2.702"/><path d="M628.38 193.1l-6.755 3.884 6.755 3.968v-2.955h26.85v-2.026h-26.85V193.1z" fill="#fff" fill-rule="evenodd" stroke-width=".727"/><path d="M720.91 179.52h34.673c3.119 0 5.63 2.246 5.63 5.035v35.862c0 2.79-2.511 5.035-5.63 5.035H720.91c-3.119 0-5.63-2.245-5.63-5.035v-35.862c0-2.79 2.511-5.035 5.63-5.035z" fill="#2f2930" stroke="#fff" stroke-linecap="round" stroke-linejoin="round" stroke-miterlimit="13.654" stroke-width="2.702"/><path d="M723.06 189.51h1.066v3.23h3.873v-3.23h1.066v7.879H728v-3.752h-3.873v3.752h-1.066v-7.879zm10.375 2.65c-.52 0-.932.202-1.235.609-.302.406-.454.963-.454 1.67s.15 1.264.452 1.67c.3.406.713.61 1.237.61.517 0 .927-.205 1.23-.613.302-.408.453-.964.453-1.667 0-.7-.151-1.255-.453-1.665a1.45 1.45 0 0 0-1.23-.615zm0-.824c.844 0 1.508.274 1.99.823.481.549.722 1.309.722 2.28 0 .967-.24 1.726-.723 2.277-.481.55-1.145.826-1.989.826-.848 0-1.512-.276-1.992-.826-.48-.55-.72-1.31-.72-2.277 0-.971.24-1.731.72-2.28.48-.549 1.144-.823 1.992-.823zm8.918 1.277c.243-.436.533-.758.87-.966.339-.207.736-.311 1.194-.311.615 0 1.09.215 1.424.646.335.431.502 1.044.502 1.84v3.567h-.977v-3.536c0-.566-.1-.987-.3-1.261-.2-.275-.507-.412-.919-.412-.503 0-.9.167-1.192.501-.292.335-.438.79-.438 1.367v3.34h-.976v-3.535c0-.57-.1-.991-.301-1.264-.2-.272-.51-.409-.929-.409-.496 0-.89.168-1.182.504-.292.336-.438.79-.438 1.364v3.34h-.976v-5.91h.976v.919c.222-.363.487-.63.797-.803.31-.172.677-.258 1.103-.258.429 0 .794.109 1.095.327.3.218.523.535.667.95zm10.987 1.578v.475h-4.464c.042.668.243 1.177.604 1.527.36.35.863.526 1.507.526.373 0 .734-.046 1.084-.138a4.82 4.82 0 0 0 1.042-.411v.918c-.348.148-.705.26-1.07.338a5.367 5.367 0 0 1-1.114.116c-.943 0-1.69-.275-2.24-.823-.551-.55-.826-1.292-.826-2.227 0-.968.26-1.736.783-2.304.523-.568 1.227-.852 2.114-.852.795 0 1.424.256 1.886.768.463.512.694 1.207.694 2.087zm-.97-.285c-.008-.531-.156-.955-.447-1.272-.29-.317-.674-.475-1.153-.475-.541 0-.975.153-1.3.46-.326.305-.513.736-.562 1.292l3.461-.005z" fill="#fff"/><path d="M27.929 231.73h34.673c3.119 0 5.63 2.246 5.63 5.035v35.862c0 2.79-2.511 5.035-5.63 5.035H27.929c-3.119 0-5.63-2.245-5.63-5.035v-35.862c0-2.79 2.511-5.035 5.63-5.035zm50.587 0h34.673c3.119 0 5.63 2.246 5.63 5.035v35.862c0 2.79-2.511 5.035-5.63 5.035H78.516c-3.119 0-5.63-2.245-5.63-5.035v-35.862c0-2.79 2.511-5.035 5.63-5.035zm50.584 0h34.673c3.119 0 5.63 2.246 5.63 5.035v35.862c0 2.79-2.511 5.035-5.63 5.035H129.1c-3.119 0-5.63-2.245-5.63-5.035v-35.862c0-2.79 2.511-5.035 5.63-5.035zm50.59 0h34.673c3.119 0 5.63 2.246 5.63 5.035v35.862c0 2.79-2.511 5.035-5.63 5.035H179.69c-3.119 0-5.63-2.245-5.63-5.035v-35.862c0-2.79 2.511-5.035 5.63-5.035zm50.58 0h34.673c3.119 0 5.63 2.246 5.63 5.035v35.862c0 2.79-2.511 5.035-5.63 5.035H230.27c-3.119 0-5.63-2.245-5.63-5.035v-35.862c0-2.79 2.511-5.035 5.63-5.035zm50.59 0h34.673c3.119 0 5.63 2.246 5.63 5.035v35.862c0 2.79-2.511 5.035-5.63 5.035H280.86c-3.119 0-5.63-2.245-5.63-5.035v-35.862c0-2.79 2.511-5.035 5.63-5.035zm50.59 0h34.673c3.119 0 5.63 2.246 5.63 5.035v35.862c0 2.79-2.511 5.035-5.63 5.035H331.45c-3.119 0-5.63-2.245-5.63-5.035v-35.862c0-2.79 2.511-5.035 5.63-5.035zm50.58 0h34.673c3.119 0 5.63 2.246 5.63 5.035v35.862c0 2.79-2.511 5.035-5.63 5.035H382.03c-3.119 0-5.63-2.245-5.63-5.035v-35.862c0-2.79 2.511-5.035 5.63-5.035zm50.59 0h34.673c3.119 0 5.63 2.246 5.63 5.035v35.862c0 2.79-2.511 5.035-5.63 5.035H432.62c-3.119 0-5.63-2.245-5.63-5.035v-35.862c0-2.79 2.511-5.035 5.63-5.035zm50.59 0h34.673c3.119 0 5.63 2.246 5.63 5.035v35.862c0 2.79-2.511 5.035-5.63 5.035H483.21c-3.119 0-5.63-2.245-5.63-5.035v-35.862c0-2.79 2.511-5.035 5.63-5.035zm50.58 0h34.673c3.119 0 5.63 2.246 5.63 5.035v35.862c0 2.79-2.511 5.035-5.63 5.035H533.79c-3.119 0-5.63-2.245-5.63-5.035v-35.862c0-2.79 2.511-5.035 5.63-5.035z" fill="#2f2930" stroke="#fff" stroke-linecap="round" stroke-linejoin="round" stroke-miterlimit="13.654" stroke-width="2.702"/><path d="M36.048 241.96c-1.377 0-2.47.513-3.28 1.54-.81 1.026-1.216 2.424-1.216 4.195 0 1.764.405 3.16 1.216 4.186.81 1.026 1.903 1.54 3.28 1.54s2.467-.514 3.271-1.54c.804-1.026 1.206-2.422 1.206-4.186 0-1.771-.402-3.17-1.206-4.196-.804-1.026-1.894-1.539-3.271-1.539zm2.656 12.474l2.497 2.731h-2.29l-2.075-2.243-.474.028a5.52 5.52 0 0 1-.314.01c-1.971 0-3.546-.659-4.726-1.976-1.18-1.317-1.77-3.08-1.77-5.29 0-2.214.59-3.98 1.77-5.298 1.18-1.317 2.755-1.975 4.726-1.975 1.965 0 3.535.658 4.712 1.975 1.176 1.318 1.764 3.084 1.764 5.299 0 1.627-.327 3.02-.98 4.177-.654 1.157-1.6 2.011-2.84 2.562zm41.201-14.014h1.915l2.947 11.845 2.938-11.845h2.13l2.947 11.845 2.938-11.845h1.924l-3.52 14.013h-2.383l-2.957-12.164-2.985 12.164h-2.384l-3.51-14.013zm51.875 0h8.86v1.596h-6.964v4.148h6.673v1.596h-6.673v5.078h7.133v1.595h-9.03V240.42zm58.49 7.45c.407.138.802.432 1.187.882s.772 1.07 1.16 1.859l1.924 3.83h-2.037l-1.793-3.596c-.463-.938-.912-1.56-1.347-1.868-.435-.306-1.027-.46-1.778-.46h-2.065v5.923h-1.896v-14.013h4.28c1.602 0 2.797.335 3.585 1.004.789.67 1.183 1.68 1.183 3.032 0 .882-.205 1.614-.615 2.196-.41.582-1.006.986-1.788 1.211zm-4.75-5.885v4.975h2.385c.913 0 1.603-.212 2.07-.634.465-.422.699-1.043.699-1.863s-.234-1.438-.7-1.854c-.466-.416-1.156-.624-2.07-.624h-2.383zm46.5-1.565h11.854v1.596h-4.975v12.418h-1.905v-12.418h-4.974v-1.596zm50.54 0h2.037l3.886 5.763 3.857-5.763h2.037l-4.956 7.34v6.673h-1.905v-6.673l-4.956-7.34zm51.57-.27h1.905v8.513c0 1.502.273 2.583.817 3.243.544.66 1.427.99 2.647.99 1.214 0 2.093-.33 2.637-.99.544-.66.817-1.741.817-3.243v-8.513h1.905v8.748c0 1.827-.452 3.207-1.356 4.139-.904.932-2.239 1.398-4.003 1.398-1.771 0-3.109-.466-4.013-1.398-.904-.932-1.356-2.312-1.356-4.14v-8.747zm55.14.27h-2.056v14.013h2.056V240.42zm51.46 1.02c-1.377 0-2.47.513-3.28 1.54s-1.216 2.424-1.216 4.195c0 1.764.405 3.16 1.216 4.186.81 1.026 1.903 1.54 3.28 1.54s2.467-.514 3.271-1.54c.804-1.026 1.206-2.422 1.206-4.186 0-1.771-.402-3.17-1.206-4.196-.804-1.026-1.894-1.539-3.271-1.539zm0-1.54c1.965 0 3.535.66 4.712 1.976 1.176 1.318 1.764 3.084 1.764 5.299 0 2.209-.588 3.972-1.764 5.289-1.177 1.317-2.747 1.975-4.712 1.975-1.971 0-3.546-.657-4.726-1.97-1.18-1.315-1.769-3.08-1.769-5.294 0-2.215.59-3.981 1.77-5.299 1.179-1.317 2.754-1.975 4.725-1.975zm47.78 1.55v5.266h2.384c.882 0 1.564-.229 2.046-.686.482-.456.723-1.107.723-1.952 0-.838-.241-1.486-.723-1.943-.482-.457-1.164-.685-2.046-.685h-2.384zm-1.896-1.558h4.28c1.57 0 2.758.355 3.562 1.065.804.71 1.206 1.75 1.206 3.121 0 1.383-.402 2.428-1.206 3.135-.804.707-1.991 1.06-3.562 1.06h-2.384v5.632h-1.896v-14.013zm54.916 10.438v.85h-.366c-.98 0-1.636-.145-1.97-.437-.332-.291-.498-.872-.498-1.741v-1.412c0-.594-.106-1.005-.319-1.234-.212-.228-.598-.342-1.157-.342h-.36v-.844h.36c.563 0 .95-.113 1.16-.34.21-.226.316-.632.316-1.219v-1.417c0-.87.166-1.45.499-1.739.333-.289.989-.434 1.969-.434h.366v.845h-.401c-.555 0-.918.086-1.087.26-.17.173-.254.537-.254 1.092v1.464c0 .618-.09 1.066-.268 1.346-.18.28-.485.468-.918.567.436.106.743.299.92.578.178.28.266.726.266 1.34v1.465c0 .555.085.919.254 1.092.17.173.532.26 1.087.26h.401zm-3.655 4.806h2.504v.844h-1.417v9.092h1.417v.845h-2.504v-10.781z" fill="#fff"/><path d="M584.38 231.73h34.673c3.119 0 5.63 2.246 5.63 5.035v35.862c0 2.79-2.511 5.035-5.63 5.035H584.38c-3.119 0-5.63-2.245-5.63-5.035v-35.862c0-2.79 2.511-5.035 5.63-5.035z" fill="#2f2930" stroke="#fff" stroke-linecap="round" stroke-linejoin="round" stroke-miterlimit="13.654" stroke-width="2.702"/><path d="M586.79 250.33h.413c.551 0 .91-.085 1.078-.254.167-.17.25-.535.25-1.098v-1.464c0-.614.09-1.061.266-1.34.178-.28.485-.473.921-.579-.436-.098-.743-.287-.92-.567-.178-.28-.266-.728-.266-1.346v-1.464c0-.559-.084-.924-.251-1.095-.168-.172-.527-.257-1.078-.257h-.413v-.844h.372c.98 0 1.634.144 1.963.434.329.289.493.868.493 1.738v1.417c0 .587.106.993.319 1.22.212.226.598.339 1.157.339h.366v.844h-.366c-.559 0-.945.114-1.157.343-.213.228-.319.64-.319 1.234V249c0 .87-.164 1.451-.493 1.743-.329.29-.983.436-1.963.436h-.372v-.85zm3.655 4.806v10.78h-2.504v-.843h1.411v-9.093h-1.41v-.844h2.503z" fill="#fff"/><path d="M51.837 283.95H86.51c3.119 0 5.63 2.246 5.63 5.035v35.862c0 2.79-2.511 5.035-5.63 5.035H51.837c-3.119 0-5.63-2.245-5.63-5.035v-35.862c0-2.79 2.511-5.035 5.63-5.035zm50.583 0h34.673c3.119 0 5.63 2.246 5.63 5.035v35.862c0 2.79-2.511 5.035-5.63 5.035H102.42c-3.119 0-5.63-2.245-5.63-5.035v-35.862c0-2.79 2.511-5.035 5.63-5.035zm50.59 0h34.673c3.119 0 5.63 2.246 5.63 5.035v35.862c0 2.79-2.511 5.035-5.63 5.035H153.01c-3.119 0-5.63-2.245-5.63-5.035v-35.862c0-2.79 2.511-5.035 5.63-5.035z" fill="#2f2930" stroke="#fff" stroke-linecap="round" stroke-linejoin="round" stroke-miterlimit="13.654" stroke-width="2.702"/><path d="M61.259 295.92l-2.572 6.974h5.153l-2.58-6.974zm-1.07-1.868h2.15l5.34 14.013h-1.971l-1.277-3.595h-6.316l-1.277 3.595H54.84l5.35-14.013z" fill="#fff"/><path d="M203.6 283.95h34.673c3.119 0 5.63 2.246 5.63 5.035v35.862c0 2.79-2.511 5.035-5.63 5.035H203.6c-3.119 0-5.63-2.245-5.63-5.035v-35.862c0-2.79 2.511-5.035 5.63-5.035z" fill="#2f2930" stroke="#fff" stroke-linecap="round" stroke-linejoin="round" stroke-miterlimit="13.654" stroke-width="2.702"/><path d="M116.82 294.26v1.849a11.69 11.69 0 0 0-2.037-.77 7.217 7.217 0 0 0-1.849-.253c-1.032 0-1.829.2-2.389.6-.56.401-.84.97-.84 1.709 0 .62.187 1.087.559 1.403.372.316 1.078.571 2.116.765l1.145.235c1.415.269 2.458.743 3.13 1.422.673.679 1.01 1.587 1.01 2.726 0 1.358-.456 2.387-1.366 3.088-.91.701-2.245 1.051-4.003 1.051a10.79 10.79 0 0 1-2.117-.225 15.755 15.755 0 0 1-2.323-.666v-1.953c.77.432 1.524.758 2.263.977a7.633 7.633 0 0 0 2.177.328c1.082 0 1.918-.213 2.506-.638.588-.426.882-1.033.882-1.821 0-.688-.21-1.226-.633-1.614-.423-.388-1.116-.68-2.08-.873l-1.154-.226c-1.414-.281-2.437-.722-3.069-1.323-.632-.6-.948-1.436-.948-2.506 0-1.239.437-2.215 1.31-2.928.872-.714 2.075-1.07 3.608-1.07.657 0 1.327.06 2.009.178a14.5 14.5 0 0 1 2.093.535z" fill="#fff"/><path d="M254.18 283.95h34.673c3.119 0 5.63 2.246 5.63 5.035v35.862c0 2.79-2.511 5.035-5.63 5.035H254.18c-3.119 0-5.63-2.245-5.63-5.035v-35.862c0-2.79 2.511-5.035 5.63-5.035z" fill="#2f2930" stroke="#fff" stroke-linecap="round" stroke-linejoin="round" stroke-miterlimit="13.654" stroke-width="2.702"/><path d="M158.93 295.36v10.897h2.29c1.934 0 3.35-.438 4.247-1.314.898-.876 1.347-2.259 1.347-4.149 0-1.877-.449-3.252-1.347-4.125-.898-.873-2.313-1.31-4.247-1.31h-2.29zm-1.896-1.558h3.895c2.716 0 4.709.565 5.979 1.694 1.27 1.13 1.905 2.896 1.905 5.299 0 2.415-.638 4.189-1.914 5.321-1.277 1.133-3.267 1.7-5.97 1.7h-3.895v-14.014z" fill="#fff"/><path d="M304.77 283.95h34.673c3.119 0 5.63 2.246 5.63 5.035v35.862c0 2.79-2.511 5.035-5.63 5.035H304.77c-3.119 0-5.63-2.245-5.63-5.035v-35.862c0-2.79 2.511-5.035 5.63-5.035z" fill="#2f2930" stroke="#fff" stroke-linecap="round" stroke-linejoin="round" stroke-miterlimit="13.654" stroke-width="2.702"/><path d="M208.64 293.8h8.053v1.596h-6.157v4.13h5.556v1.595h-5.556v6.692h-1.896V293.8z" fill="#fff"/><path d="M355.36 283.95h34.673c3.119 0 5.63 2.246 5.63 5.035v35.862c0 2.79-2.511 5.035-5.63 5.035H355.36c-3.119 0-5.63-2.245-5.63-5.035v-35.862c0-2.79 2.511-5.035 5.63-5.035z" fill="#2f2930" stroke="#fff" stroke-linecap="round" stroke-linejoin="round" stroke-miterlimit="13.654" stroke-width="2.702"/><path d="M265.82 305.81v-3.764h-3.097v-1.558h4.974v6.016c-.732.52-1.54.912-2.421 1.178a9.742 9.742 0 0 1-2.826.4c-2.19 0-3.903-.64-5.138-1.92s-1.854-3.061-1.854-5.345c0-2.29.618-4.076 1.854-5.355s2.948-1.92 5.138-1.92c.914 0 1.782.113 2.605.338a8.397 8.397 0 0 1 2.276.995v2.018a7.67 7.67 0 0 0-2.234-1.342 6.928 6.928 0 0 0-2.487-.45c-1.715 0-3.002.478-3.862 1.435-.86.958-1.291 2.384-1.291 4.28 0 1.89.43 3.314 1.29 4.271.861.957 2.148 1.436 3.863 1.436a8.36 8.36 0 0 0 1.793-.174 4.886 4.886 0 0 0 1.417-.54z" fill="#fff"/><path d="M405.94 283.95h34.673c3.119 0 5.63 2.246 5.63 5.035v35.862c0 2.79-2.511 5.035-5.63 5.035H405.94c-3.119 0-5.63-2.245-5.63-5.035v-35.862c0-2.79 2.511-5.035 5.63-5.035z" fill="#2f2930" stroke="#fff" stroke-linecap="round" stroke-linejoin="round" stroke-miterlimit="13.654" stroke-width="2.702"/><path d="M308.36 293.8h1.896v5.744h6.89V293.8h1.895v14.013h-1.896v-6.673h-6.889v6.673h-1.896V293.8z" fill="#fff"/><path d="M456.53 283.95h34.673c3.119 0 5.63 2.246 5.63 5.035v35.862c0 2.79-2.511 5.035-5.63 5.035H456.53c-3.119 0-5.63-2.245-5.63-5.035v-35.862c0-2.79 2.511-5.035 5.63-5.035z" fill="#2f2930" stroke="#fff" stroke-linecap="round" stroke-linejoin="round" stroke-miterlimit="13.654" stroke-width="2.702"/><path d="M363.76 292.5h1.896v13.037c0 1.69-.32 2.916-.962 3.68-.641.763-1.672 1.144-3.093 1.144h-.722v-1.595h.59c.84 0 1.43-.235 1.775-.704.344-.47.516-1.311.516-2.525V292.5z" fill="#fff"/><path d="M507.12 283.95h34.673c3.119 0 5.63 2.246 5.63 5.035v35.862c0 2.79-2.511 5.035-5.63 5.035H507.12c-3.119 0-5.63-2.245-5.63-5.035v-35.862c0-2.79 2.511-5.035 5.63-5.035z" fill="#2f2930" stroke="#fff" stroke-linecap="round" stroke-linejoin="round" stroke-miterlimit="13.654" stroke-width="2.702"/><path d="M413.02 292.24h1.896v5.923l6.289-5.923h2.44l-6.955 6.533 7.452 7.48h-2.496l-6.73-6.748v6.748h-1.896V292.24z" fill="#fff"/><path d="M557.7 283.95h34.673c3.119 0 5.63 2.246 5.63 5.035v35.862c0 2.79-2.511 5.035-5.63 5.035H557.7c-3.119 0-5.63-2.245-5.63-5.035v-35.862c0-2.79 2.511-5.035 5.63-5.035z" fill="#2f2930" stroke="#fff" stroke-linecap="round" stroke-linejoin="round" stroke-miterlimit="13.654" stroke-width="2.702"/><path d="M461.18 292.24h1.896v12.418h6.824v1.596h-8.72V292.24z" fill="#fff"/><path d="M608.29 283.95h34.673c3.119 0 5.63 2.246 5.63 5.035v35.862c0 2.79-2.511 5.035-5.63 5.035H608.29c-3.119 0-5.63-2.245-5.63-5.035v-35.862c0-2.79 2.511-5.035 5.63-5.035z" fill="#2f2930" stroke="#fff" stroke-linecap="round" stroke-linejoin="round" stroke-miterlimit="13.654" stroke-width="2.702"/><path d="M510.83 298.71h1.246v1.5h-1.246v-1.5zm0-4.753h1.246v1.5h-1.246v-1.5zm0 15.114h1.246v1.5h-1.246v-1.5zm0 4.753h1.246v1.015l-.969 1.89h-.761l.484-1.89v-1.015zm51.11-17.514c0 .563.14 1.005.42 1.325.279.321.662.482 1.15.482.485 0 .866-.162 1.143-.484.277-.323.416-.764.416-1.323 0-.551-.141-.989-.425-1.314-.283-.324-.665-.487-1.145-.487-.477 0-.855.162-1.137.484-.281.323-.422.762-.422 1.317zm3.218 1.765a2.243 2.243 0 0 1-.812.67c-.305.144-.66.216-1.066.216-.677 0-1.227-.245-1.65-.735-.423-.49-.635-1.129-.635-1.916s.213-1.427.638-1.919c.425-.492.974-.738 1.647-.738.406 0 .762.074 1.069.222.307.147.577.37.809.67v-.774h.844v4.346c.575-.087 1.024-.35 1.349-.788.325-.44.487-1.007.487-1.704 0-.421-.062-.817-.186-1.186a3.33 3.33 0 0 0-.564-1.028 4.09 4.09 0 0 0-1.496-1.184 4.503 4.503 0 0 0-1.922-.41 5.02 5.02 0 0 0-1.394.192 4.407 4.407 0 0 0-1.233.57 4.235 4.235 0 0 0-1.45 1.58 4.419 4.419 0 0 0-.522 2.116c0 .626.113 1.212.34 1.76.225.546.553 1.028.982 1.446.413.409.892.72 1.435.935a4.7 4.7 0 0 0 3.238.065c.49-.17.94-.416 1.35-.735l.53.656a5.643 5.643 0 0 1-1.608.876 5.503 5.503 0 0 1-3.829-.083 5.213 5.213 0 0 1-1.724-1.124 5.006 5.006 0 0 1-1.151-1.71 5.48 5.48 0 0 1-.396-2.086c0-.717.134-1.4.402-2.05a5.13 5.13 0 0 1 1.145-1.711 5.268 5.268 0 0 1 1.76-1.149 5.646 5.646 0 0 1 2.113-.398 5.31 5.31 0 0 1 2.323.513 4.92 4.92 0 0 1 1.798 1.459c.295.386.52.805.676 1.257.155.453.233.921.233 1.406 0 1.035-.313 1.851-.939 2.45-.625.598-1.49.909-2.591.933v-.91zm-1.17 7.705v3.277h-1.003v-3.277h1.004zm55.392-10.43v1.05c-.413.312-.796.534-1.148.668-.353.134-.72.2-1.101.2-.433 0-.937-.115-1.512-.348a3.473 3.473 0 0 1-.094-.035 1.812 1.812 0 0 0-.13-.047c-.61-.244-1.1-.366-1.47-.366a2.5 2.5 0 0 0-1.028.227c-.338.152-.7.39-1.086.717v-1.05c.413-.311.796-.535 1.148-.67.353-.136.72-.204 1.101-.204.433 0 .94.118 1.518.354l.088.035.13.048c.61.244 1.1.366 1.47.366a2.43 2.43 0 0 0 1.007-.225c.333-.15.702-.39 1.107-.72zm-2.669 14.618h-1.718l-.496 1.972h1.73l.484-1.972zm-.885-3.36l-.614 2.45h1.724l.62-2.45h.944l-.608 2.45h1.842v.91h-2.072l-.484 1.972h1.877v.903h-2.107l-.614 2.445h-.945l.608-2.445h-1.73l-.608 2.445h-.95l.614-2.445h-1.86v-.903h2.078l.496-1.972h-1.901v-.91h2.131l.602-2.45h.957z" fill="#fff"/><path d="M72.505 336.17h34.673c3.119 0 5.63 2.246 5.63 5.035v35.862c0 2.79-2.511 5.035-5.63 5.035H72.505c-3.119 0-5.63-2.245-5.63-5.035v-35.862c0-2.79 2.511-5.035 5.63-5.035zm51.025 0h34.673c3.119 0 5.63 2.246 5.63 5.035v35.862c0 2.79-2.511 5.035-5.63 5.035H123.53c-3.119 0-5.63-2.245-5.63-5.035v-35.862c0-2.79 2.511-5.035 5.63-5.035zm51.03 0h34.673c3.119 0 5.63 2.246 5.63 5.035v35.862c0 2.79-2.511 5.035-5.63 5.035H174.56c-3.119 0-5.63-2.245-5.63-5.035v-35.862c0-2.79 2.511-5.035 5.63-5.035zm51.02 0h34.673c3.119 0 5.63 2.246 5.63 5.035v35.862c0 2.79-2.511 5.035-5.63 5.035H225.58c-3.119 0-5.63-2.245-5.63-5.035v-35.862c0-2.79 2.511-5.035 5.63-5.035zm51.03 0h34.673c3.119 0 5.63 2.246 5.63 5.035v35.862c0 2.79-2.511 5.035-5.63 5.035H276.61c-3.119 0-5.63-2.245-5.63-5.035v-35.862c0-2.79 2.511-5.035 5.63-5.035zm51.02 0h34.673c3.119 0 5.63 2.246 5.63 5.035v35.862c0 2.79-2.511 5.035-5.63 5.035H327.63c-3.119 0-5.63-2.245-5.63-5.035v-35.862c0-2.79 2.511-5.035 5.63-5.035zm51.03 0h34.673c3.119 0 5.63 2.246 5.63 5.035v35.862c0 2.79-2.511 5.035-5.63 5.035H378.66c-3.119 0-5.63-2.245-5.63-5.035v-35.862c0-2.79 2.511-5.035 5.63-5.035zm51.02 0h34.673c3.119 0 5.63 2.246 5.63 5.035v35.862c0 2.79-2.511 5.035-5.63 5.035H429.68c-3.119 0-5.63-2.245-5.63-5.035v-35.862c0-2.79 2.511-5.035 5.63-5.035z" fill="#2f2930" stroke="#fff" stroke-linecap="round" stroke-linejoin="round" stroke-miterlimit="13.654" stroke-width="2.702"/><path d="M76.015 346.2h11.01v1.445l-8.86 10.972h9.076v1.596H75.799v-1.445l8.86-10.972h-8.644V346.2z" fill="#fff"/><path d="M480.71 336.17h34.673c3.119 0 5.63 2.246 5.63 5.035v35.862c0 2.79-2.511 5.035-5.63 5.035H480.71c-3.119 0-5.63-2.245-5.63-5.035v-35.862c0-2.79 2.511-5.035 5.63-5.035z" fill="#2f2930" stroke="#fff" stroke-linecap="round" stroke-linejoin="round" stroke-miterlimit="13.654" stroke-width="2.702"/><path d="M126.9 347.26h2.037l3.482 5.21 3.5-5.21h2.038l-4.506 6.73 4.806 7.283h-2.037l-3.942-5.96-3.97 5.96h-2.046l5.002-7.48-4.364-6.533zm60.22-.24v2c-.638-.595-1.319-1.04-2.041-1.334a6.055 6.055 0 0 0-2.305-.44c-1.602 0-2.828.489-3.679 1.468-.85.98-1.276 2.395-1.276 4.247 0 1.846.425 3.259 1.276 4.238.851.98 2.077 1.469 3.68 1.469.813 0 1.58-.147 2.304-.441.722-.294 1.403-.739 2.041-1.333v1.98a7.735 7.735 0 0 1-2.107 1.014 8.046 8.046 0 0 1-2.351.338c-2.122 0-3.792-.65-5.013-1.948s-1.83-3.07-1.83-5.317c0-2.252.61-4.028 1.83-5.326s2.891-1.948 5.013-1.948c.838 0 1.628.111 2.37.333a7.507 7.507 0 0 1 2.088 1zm44.36 12.94l-5.35-14.013h1.98l4.44 11.798 4.449-11.798h1.97l-5.34 14.013h-2.15zm49.16-6.7v5.134h3.041c1.02 0 1.776-.211 2.267-.633.491-.423.737-1.069.737-1.939 0-.876-.246-1.522-.737-1.938-.491-.416-1.247-.624-2.267-.624h-3.041zm0-5.763v4.224h2.806c.926 0 1.616-.174 2.07-.521.454-.347.68-.878.68-1.591 0-.707-.226-1.236-.68-1.586-.454-.35-1.144-.526-2.07-.526h-2.806zm-1.896-1.558h4.843c1.446 0 2.56.3 3.342.901.782.6 1.173 1.455 1.173 2.562 0 .858-.2 1.54-.6 2.047-.401.506-.99.822-1.765.948.932.2 1.656.617 2.172 1.253.517.635.775 1.428.775 2.379 0 1.251-.426 2.218-1.277 2.9-.85.682-2.062 1.023-3.632 1.023h-5.031V345.94zm51.266.001h2.553l6.213 11.723V345.94h1.84v14.013h-2.553l-6.213-11.723v11.723h-1.84V345.94zm49.91-1.3h2.825l3.576 9.536 3.595-9.536h2.825v14.013h-1.849v-12.305l-3.613 9.611h-1.906l-3.613-9.611v12.305h-1.84V344.64zm60.33 2.46l-6.093 2.167 6.093 2.155v1.074l-7.569-2.745v-.98l7.569-2.745v1.074zm-4.292 19.566h1.245v1.016l-.968 1.889h-.761l.484-1.89v-1.015zM484.54 347.1v-1.075l7.57 2.746v.98l-7.57 2.745v-1.074l6.081-2.155-6.081-2.167zm3.153 19.566h1.246v1.5h-1.246v-1.5z" fill="#fff"/><path d="M531.73 336.17h34.673c3.119 0 5.63 2.246 5.63 5.035v35.862c0 2.79-2.511 5.035-5.63 5.035H531.73c-3.119 0-5.63-2.245-5.63-5.035v-35.862c0-2.79 2.511-5.035 5.63-5.035z" fill="#2f2930" stroke="#fff" stroke-linecap="round" stroke-linejoin="round" stroke-miterlimit="13.654" stroke-width="2.702"/><path d="M537.51 353.33h1.199v1.5h-1.199v-1.5zm1.163-.868h-1.128v-.91c0-.397.056-.723.166-.98.11-.255.342-.552.696-.89l.532-.526a2.44 2.44 0 0 0 .487-.59c.1-.186.15-.375.15-.567 0-.35-.128-.634-.386-.85-.258-.217-.6-.325-1.025-.325a2.74 2.74 0 0 0-.995.206 5.479 5.479 0 0 0-1.1.602v-1.11c.37-.224.744-.391 1.124-.501.38-.11.773-.166 1.178-.166.724 0 1.306.191 1.745.573.439.382.658.886.658 1.511 0 .3-.07.584-.213.854-.141.27-.39.573-.744.912l-.519.508c-.185.185-.316.33-.393.434-.076.104-.13.205-.162.304a1.735 1.735 0 0 0-.053.3c-.012.119-.018.28-.018.485v.726zm.768 8.667h1.003l-3.07 9.937h-1.003l3.07-9.937z" fill="#fff"/><path d="M48.101 388.38h34.673c3.119 0 5.63 2.246 5.63 5.035v35.862c0 2.79-2.511 5.035-5.63 5.035H48.101c-3.119 0-5.63-2.245-5.63-5.035v-35.862c0-2.79 2.511-5.035 5.63-5.035zm-86.734-52.21h43.76c3.119 0 5.63 2.246 5.63 5.035v35.862c0 2.79-2.511 5.035-5.63 5.035h-43.76c-3.119 0-5.63-2.245-5.63-5.035v-35.862c0-2.79 2.511-5.035 5.63-5.035zm0-52.22h70.775c3.119 0 5.63 2.246 5.63 5.035v35.862c0 2.79-2.511 5.035-5.63 5.035h-70.775c-3.119 0-5.63-2.245-5.63-5.035v-35.862c0-2.79 2.511-5.035 5.63-5.035z" fill="#2f2930" stroke="#fff" stroke-linecap="round" stroke-linejoin="round" stroke-miterlimit="13.654" stroke-width="2.702"/><path d="M-27.076 296.05v1.232a4.135 4.135 0 0 0-1.258-.821 3.732 3.732 0 0 0-1.42-.272c-.988 0-1.744.302-2.269.905-.524.604-.787 1.477-.787 2.618 0 1.138.263 2.009.787 2.613.525.603 1.28.905 2.268.905.502 0 .975-.09 1.42-.272a4.134 4.134 0 0 0 1.259-.821v1.22a4.768 4.768 0 0 1-2.748.834c-1.308 0-2.338-.4-3.09-1.201-.752-.8-1.128-1.893-1.128-3.278 0-1.388.376-2.483 1.128-3.283.752-.8 1.782-1.2 3.09-1.2.517 0 1.004.068 1.46.205.458.137.887.342 1.288.616zm4.715 4.715c-.86 0-1.456.099-1.787.295-.332.197-.498.533-.498 1.007 0 .378.124.678.373.9.249.222.587.333 1.016.333.59 0 1.063-.21 1.42-.628.357-.419.535-.975.535-1.67v-.237h-1.059zm2.124-.44v3.698h-1.065v-.984a2.319 2.319 0 0 1-.908.87c-.363.188-.806.282-1.33.282-.664 0-1.192-.187-1.583-.559-.392-.372-.587-.87-.587-1.495 0-.73.243-1.279.731-1.65s1.216-.555 2.184-.555h1.493v-.104c0-.49-.16-.869-.483-1.137-.322-.268-.774-.402-1.357-.402a4.289 4.289 0 0 0-2.094.532v-.983c.39-.15.767-.263 1.134-.339a5.317 5.317 0 0 1 1.07-.112c.938 0 1.638.243 2.1.729.463.486.695 1.222.695 2.21zm3.228 2.726v3.436h-1.07v-8.944h1.07v.983c.224-.385.506-.672.848-.859.341-.187.749-.28 1.224-.28.786 0 1.426.312 1.918.937.491.625.737 1.446.737 2.465 0 1.018-.246 1.84-.737 2.464-.492.625-1.132.938-1.918.938-.475 0-.883-.094-1.224-.281-.342-.187-.624-.474-.848-.86zm3.622-2.262c0-.783-.16-1.398-.483-1.843-.322-.446-.765-.668-1.328-.668-.563 0-1.006.222-1.328.668-.322.445-.483 1.06-.483 1.843 0 .783.161 1.397.483 1.842s.765.669 1.328.669 1.006-.223 1.328-.669c.322-.445.483-1.06.483-1.842zm7-3.055v1.006a4.158 4.158 0 0 0-1.943-.462c-.529 0-.925.08-1.19.243-.263.162-.395.405-.395.729 0 .246.094.44.283.581s.569.275 1.14.402l.364.081c.756.162 1.293.39 1.612.686.318.295.477.707.477 1.235 0 .602-.238 1.078-.715 1.43-.476.35-1.13.526-1.964.526a6.14 6.14 0 0 1-1.085-.102 9.065 9.065 0 0 1-1.189-.303v-1.1c.394.205.781.358 1.163.46.382.102.76.154 1.134.154.502 0 .887-.086 1.157-.258a.814.814 0 0 0 .405-.726c0-.29-.097-.511-.292-.665-.195-.155-.622-.303-1.281-.446l-.37-.087c-.66-.139-1.136-.352-1.43-.639-.293-.287-.44-.682-.44-1.183 0-.61.217-1.08.649-1.412s1.045-.497 1.84-.497c.393 0 .763.028 1.11.086.348.058.668.145.96.26zm-27.157 9.5h1.169v7.654h4.206v.984h-5.375v-8.638zm9.06 2.904c-.57 0-1.022.223-1.354.669-.331.445-.497 1.055-.497 1.83s.165 1.386.495 1.832c.33.445.782.668 1.356.668.567 0 1.017-.224 1.348-.671.332-.447.498-1.057.498-1.828 0-.768-.166-1.376-.498-1.826-.331-.449-.78-.674-1.348-.674zm0-.902c.926 0 1.653.3 2.182.902.528.602.792 1.435.792 2.5 0 1.06-.264 1.893-.792 2.496-.529.604-1.256.906-2.182.906-.93 0-1.657-.302-2.184-.906-.526-.603-.79-1.436-.79-2.496 0-1.065.264-1.898.79-2.5.527-.601 1.255-.902 2.184-.902zm9.396.405v.995c-.3-.166-.602-.29-.905-.373a3.459 3.459 0 0 0-.917-.125c-.69 0-1.227.22-1.608.657-.382.438-.573 1.052-.573 1.843 0 .79.19 1.405.573 1.842.381.438.918.657 1.608.657.308 0 .614-.041.917-.124.303-.083.605-.208.905-.374v.984a4.375 4.375 0 0 1-.922.313 4.792 4.792 0 0 1-1.016.104c-.976 0-1.751-.307-2.326-.92-.574-.614-.862-1.44-.862-2.482 0-1.057.29-1.888.87-2.494.581-.606 1.377-.908 2.388-.908a4.375 4.375 0 0 1 1.869.405zm1.823-2.772h1.07v5.317l3.177-2.794h1.36l-3.437 3.032 3.581 3.448h-1.389l-3.292-3.165v3.165h-1.07v-9.003z" fill="#fff"/><path d="M-38.633 231.73h52.16c3.119 0 5.63 2.246 5.63 5.035v35.862c0 2.79-2.511 5.035-5.63 5.035h-52.16c-3.119 0-5.63-2.245-5.63-5.035v-35.862c0-2.79 2.511-5.035 5.63-5.035z" fill="#2f2930" stroke="#fff" stroke-linecap="round" stroke-linejoin="round" stroke-miterlimit="13.654" stroke-width="2.702"/><path d="M-34.588 240.47v9.119h1.35v-4.222l4.391 2.533v-1.942h11.99v-1.266h-11.99v-1.942l-4.39 2.448v-4.728h-1.351zm17.055 11.48v9.203h1.351v-9.203h-1.351zm-4.56 2.28v1.942h-11.99v1.266h11.99v1.942l4.391-2.533-4.39-2.617z" fill="#fff" fill-rule="evenodd" stroke-width=".473"/><path d="M720.91 231.73h34.673c3.119 0 5.63 2.246 5.63 5.035v35.862c0 2.79-2.511 5.035-5.63 5.035H720.91c-3.119 0-5.63-2.245-5.63-5.035v-35.862c0-2.79 2.511-5.035 5.63-5.035z" fill="#2f2930" stroke="#fff" stroke-linecap="round" stroke-linejoin="round" stroke-miterlimit="13.654" stroke-width="2.702"/><path d="M724.12 244.47v2.96h1.34c.496 0 .88-.128 1.15-.385.272-.257.407-.623.407-1.097 0-.472-.135-.836-.406-1.093s-.655-.385-1.15-.385h-1.341zm-1.066-.876h2.406c.883 0 1.55.2 2.003.599.452.4.678.984.678 1.755 0 .777-.226 1.365-.678 1.762-.452.398-1.12.596-2.003.596h-1.34v3.167h-1.066v-7.88zm10.37 4.855c0-.704-.145-1.249-.435-1.636-.29-.387-.698-.58-1.222-.58-.52 0-.926.193-1.216.58-.29.387-.436.932-.436 1.636 0 .7.145 1.243.436 1.63.29.387.695.581 1.216.581.524 0 .931-.194 1.222-.58.29-.387.435-.931.435-1.631zm.97 2.29c0 1.006-.222 1.755-.67 2.246-.446.49-1.13.736-2.052.736-.341 0-.663-.026-.966-.077a4.858 4.858 0 0 1-.881-.235v-.944c.285.155.566.269.844.343.278.074.562.11.85.11.637 0 1.113-.166 1.43-.498.317-.332.475-.835.475-1.507v-.48c-.2.348-.457.609-.77.781-.314.173-.688.259-1.125.259-.724 0-1.308-.276-1.752-.829-.443-.552-.664-1.284-.664-2.195 0-.915.221-1.648.664-2.2.444-.553 1.028-.829 1.752-.829.437 0 .811.086 1.124.259.314.172.57.432.77.78v-.897h.972v5.177zm1.922-7.145h1.071v4.786c0 .845.153 1.452.46 1.824.305.37.801.556 1.487.556.683 0 1.177-.185 1.483-.556.306-.372.46-.98.46-1.824v-4.786h1.07v4.918c0 1.028-.254 1.803-.762 2.327-.508.525-1.259.787-2.25.787-.996 0-1.748-.262-2.257-.787-.508-.524-.762-1.3-.762-2.327v-4.918zm8.934 6.992v3.135h-.976v-8.159h.976v.897c.204-.351.462-.613.773-.783s.683-.256 1.116-.256c.718 0 1.3.285 1.75.855.448.57.672 1.319.672 2.248 0 .928-.224 1.678-.673 2.248-.448.57-1.031.855-1.749.855-.433 0-.805-.086-1.116-.256a2.019 2.019 0 0 1-.773-.784zm3.303-2.063c0-.714-.146-1.275-.44-1.681-.294-.406-.698-.61-1.211-.61-.514 0-.918.204-1.211.61-.294.406-.441.967-.441 1.68 0 .715.147 1.275.44 1.682.294.406.698.61 1.212.61.513 0 .917-.204 1.21-.61.295-.407.441-.967.441-1.681z" fill="#fff"/><path d="M720.91 283.95h34.673c3.119 0 5.63 2.246 5.63 5.035v35.862c0 2.79-2.511 5.035-5.63 5.035H720.91c-3.119 0-5.63-2.245-5.63-5.035v-35.862c0-2.79 2.511-5.035 5.63-5.035z" fill="#2f2930" stroke="#fff" stroke-linecap="round" stroke-linejoin="round" stroke-miterlimit="13.654" stroke-width="2.702"/><path d="M724.12 296.19v2.96h1.34c.496 0 .88-.128 1.15-.385.272-.257.407-.622.407-1.097 0-.472-.135-.836-.406-1.093s-.655-.385-1.15-.385h-1.341zm-1.066-.876h2.406c.883 0 1.55.2 2.003.599.452.4.678.984.678 1.755 0 .777-.226 1.365-.678 1.762-.452.398-1.12.596-2.003.596h-1.34v3.167h-1.066v-7.879zm10.37 4.855c0-.704-.145-1.249-.435-1.636-.29-.387-.698-.58-1.222-.58-.52 0-.926.193-1.216.58-.29.387-.436.932-.436 1.636 0 .7.145 1.244.436 1.63.29.387.695.58 1.216.58.524 0 .931-.193 1.222-.58.29-.386.435-.93.435-1.63zm.97 2.29c0 1.006-.222 1.755-.67 2.246-.446.49-1.13.736-2.052.736-.341 0-.663-.026-.966-.077a4.858 4.858 0 0 1-.881-.235v-.944c.285.155.566.269.844.343.278.074.562.11.85.11.637 0 1.113-.166 1.43-.498.317-.333.475-.835.475-1.507v-.48c-.2.348-.457.609-.77.781-.314.173-.688.259-1.125.259-.724 0-1.308-.276-1.752-.829-.443-.552-.664-1.284-.664-2.195 0-.915.221-1.648.664-2.2.444-.553 1.028-.83 1.752-.83.437 0 .811.087 1.124.26.314.172.57.432.77.78v-.897h.972v5.177zm3.11-6.269v6.127h1.287c1.087 0 1.883-.247 2.388-.74.504-.492.757-1.27.757-2.332 0-1.055-.253-1.828-.757-2.319-.505-.49-1.301-.736-2.388-.736h-1.288zm-1.067-.876h2.19c1.527 0 2.647.318 3.362.953.714.635 1.071 1.628 1.071 2.978 0 1.358-.359 2.356-1.077 2.993-.717.636-1.836.955-3.356.955h-2.19v-7.879zm13.188 4.311v3.568h-.97v-3.536c0-.56-.11-.978-.328-1.256-.218-.278-.545-.417-.982-.417-.524 0-.937.167-1.24.502-.302.334-.454.79-.454 1.366v3.34h-.976v-5.91h.976v.919a2.37 2.37 0 0 1 .821-.797 2.197 2.197 0 0 1 1.09-.264c.679 0 1.192.21 1.54.63.349.421.523 1.04.523 1.855z" fill="#fff"/><path d="M720.91 336.17h34.673c3.119 0 5.63 2.246 5.63 5.035v35.862c0 2.79-2.511 5.035-5.63 5.035H720.91c-3.119 0-5.63-2.245-5.63-5.035v-35.862c0-2.79 2.511-5.035 5.63-5.035z" fill="#2f2930" stroke="#fff" stroke-linecap="round" stroke-linejoin="round" stroke-miterlimit="13.654" stroke-width="2.702"/><path d="M723.06 348.16h4.982v.897h-3.916v2.333h3.752v.897h-3.752v2.855h4.01v.897h-5.076v-7.879zm11.71 4.311v3.568h-.971v-3.536c0-.56-.109-.978-.327-1.256-.218-.278-.545-.417-.982-.417-.524 0-.937.167-1.24.502-.302.334-.454.79-.454 1.366v3.34h-.976v-5.91h.976v.919a2.38 2.38 0 0 1 .82-.797 2.197 2.197 0 0 1 1.09-.264c.68 0 1.193.21 1.542.63.348.421.522 1.04.522 1.855zm5.836-1.445v-3.198h.971v8.21h-.97v-.886a2.019 2.019 0 0 1-.774.784c-.31.17-.685.256-1.121.256-.714 0-1.295-.285-1.744-.855-.449-.57-.673-1.32-.673-2.248 0-.929.224-1.678.673-2.248.449-.57 1.03-.855 1.744-.855.436 0 .81.085 1.121.256.312.17.57.432.773.784zm-3.308 2.063c0 .714.147 1.274.44 1.68.294.407.698.61 1.211.61.514 0 .919-.203 1.214-.61.296-.406.444-.966.444-1.68s-.148-1.275-.444-1.681c-.295-.406-.7-.61-1.214-.61-.513 0-.917.204-1.21.61-.294.406-.441.967-.441 1.68z" fill="#fff"/><path d="M720.91 388.38h34.673c3.119 0 5.63 2.246 5.63 5.035v35.862c0 2.79-2.511 5.035-5.63 5.035H720.91c-3.119 0-5.63-2.245-5.63-5.035v-35.862c0-2.79 2.511-5.035 5.63-5.035zm-51.02-52.21h34.673c3.119 0 5.63 2.246 5.63 5.035v35.862c0 2.79-2.511 5.035-5.63 5.035H669.89c-3.119 0-5.63-2.245-5.63-5.035v-35.862c0-2.79 2.511-5.035 5.63-5.035zm.39 52.21h34.673c3.119 0 5.63 2.246 5.63 5.035v35.862c0 2.79-2.511 5.035-5.63 5.035H670.28c-3.119 0-5.63-2.245-5.63-5.035v-35.862c0-2.79 2.511-5.035 5.63-5.035zm-50.63 0h34.673c3.119 0 5.63 2.246 5.63 5.035v35.862c0 2.79-2.511 5.035-5.63 5.035H619.65c-3.119 0-5.63-2.245-5.63-5.035v-35.862c0-2.79 2.511-5.035 5.63-5.035zm-36.89-52.21h70.775c3.119 0 5.63 2.246 5.63 5.035v35.862c0 2.79-2.511 5.035-5.63 5.035H582.76c-3.119 0-5.63-2.245-5.63-5.035v-35.862c0-2.79 2.511-5.035 5.63-5.035z" fill="#2f2930" stroke="#fff" stroke-linecap="round" stroke-linejoin="round" stroke-miterlimit="13.654" stroke-width="2.702"/><g fill="#fff" fill-rule="evenodd"><path d="M635.14 408.75l-6.755 3.968 6.755 3.884v-2.955h9.963v-1.942h-9.963v-2.955zm50.74-58.26l-3.968 6.84h2.955v9.962h1.942v-9.963h2.955l-3.884-6.839zm-.59 52.68v10.048h-2.955l3.968 6.755 3.884-6.755h-2.955V403.17h-1.942zm54.8 5.58v2.955h-9.963v1.942h9.963v2.955l6.84-3.884-6.84-3.968z" stroke-width=".727"/><path d="M596.22 343.75l-.591.844-8.866 12.918-1.097 1.604 1.857-.506 4.475-1.098v9.541h8.95v-.76l-.084-8.865 4.39.929 1.858.422-1.098-1.52-9.203-12.665-.591-.844zm0 2.533l7.346 10.216-3.293-.76-.929-.169v.929l.084 9.119h-5.91l-.084-9.12v-.928l-.93.254-3.376.844 7.092-10.385z" stroke-width=".55"/></g><g stroke-linecap="round"><g stroke="#fff"><path d="M509.3 388.38h34.673c3.119 0 5.63 2.246 5.63 5.035v35.862c0 2.79-2.511 5.035-5.63 5.035H509.3c-3.119 0-5.63-2.245-5.63-5.035v-35.862c0-2.79 2.511-5.035 5.63-5.035z" fill="#2f2930" stroke-linejoin="round" stroke-miterlimit="13.654" stroke-width="2.702"/><path fill="none" stroke-width="1.337" d="M511.94 399.59h15.204v18.975H511.94z"/></g><path d="M512.45 404.67v4.39h14.016v-4.39H512.45zm2.87 1.52h8.275v1.35h-8.274v-1.35z" fill="#fff" stroke-width=".8"/></g><g stroke="#fff"><g fill-rule="evenodd"><path d="M515.32 415.67h8.276m-8.276-4.4h8.276m-8.276-8.81h8.276" fill="none" stroke-width="1.351"/><path d="M525.41 406.74l1.156 9.342 2.215-1.348 2.312 3.852 1.926-1.252-2.408-3.563 2.215-1.349-7.416-5.682z" fill="#2f2930" stroke-width=".821"/></g><path d="M458.67 388.38h34.673c3.119 0 5.63 2.246 5.63 5.035v35.862c0 2.79-2.511 5.035-5.63 5.035H458.67c-3.119 0-5.63-2.245-5.63-5.035v-35.862c0-2.79 2.511-5.035 5.63-5.035z" fill="#2f2930" stroke-linecap="round" stroke-linejoin="round" stroke-miterlimit="13.654" stroke-width="2.702"/></g><path d="M463.07 408.28l-1.585 4.299h3.176l-1.591-4.299zm-.66-1.151h1.325l3.293 8.638h-1.215l-.787-2.216h-3.894l-.787 2.216h-1.232l3.298-8.638zm5.827-.365h1.064v9.003h-1.064v-9.003zm4.34.683v1.84h2.192v.827h-2.193v3.518c0 .528.072.868.217 1.018.145.15.439.226.882.226h1.094v.89h-1.094c-.821 0-1.388-.153-1.7-.46-.313-.306-.47-.864-.47-1.674v-3.518h-.78v-.827h.78v-1.84h1.071zm13.306 7.087v-2.32h-1.91v-.96h3.067v3.708a5.11 5.11 0 0 1-1.492.727 6.004 6.004 0 0 1-1.742.245c-1.35 0-2.406-.394-3.168-1.183-.761-.788-1.142-1.887-1.142-3.295 0-1.411.38-2.512 1.142-3.3.762-.79 1.818-1.184 3.168-1.184.563 0 1.098.07 1.606.209a5.18 5.18 0 0 1 1.403.613v1.244a4.73 4.73 0 0 0-1.377-.827 4.27 4.27 0 0 0-1.534-.278c-1.056 0-1.85.295-2.38.885s-.796 1.47-.796 2.638c0 1.165.265 2.043.796 2.633.53.59 1.324.885 2.38.885.413 0 .781-.036 1.105-.107a3.01 3.01 0 0 0 .874-.333zm7.007-4.252c-.12-.07-.25-.12-.39-.153a2.055 2.055 0 0 0-.467-.05c-.601 0-1.063.196-1.385.588-.322.391-.483.953-.483 1.686v3.414h-1.07v-6.48h1.07v1.006c.223-.393.514-.685.873-.876.359-.191.795-.286 1.308-.286.073 0 .154.004.243.014s.187.024.295.043l.006 1.094z" fill="#fff"/><path d="M559.93 388.38h43.76c3.119 0 5.63 2.246 5.63 5.035v35.862c0 2.79-2.511 5.035-5.63 5.035h-43.76c-3.119 0-5.63-2.245-5.63-5.035v-35.862c0-2.79 2.511-5.035 5.63-5.035z" fill="#2f2930" stroke="#fff" stroke-linecap="round" stroke-linejoin="round" stroke-miterlimit="13.654" stroke-width="2.702"/><g fill="#fff"><path d="M568.78 400.41v1.232a4.138 4.138 0 0 0-1.258-.821 3.733 3.733 0 0 0-1.42-.272c-.988 0-1.744.302-2.269.905-.524.604-.787 1.477-.787 2.618 0 1.138.263 2.01.787 2.613.525.603 1.28.905 2.268.905.502 0 .975-.09 1.42-.272a4.137 4.137 0 0 0 1.259-.821v1.22a4.771 4.771 0 0 1-2.748.834c-1.308 0-2.338-.4-3.09-1.2-.752-.801-1.128-1.894-1.128-3.279 0-1.388.376-2.483 1.128-3.283.752-.8 1.782-1.2 3.09-1.2.517 0 1.003.068 1.46.205a4.63 4.63 0 0 1 1.288.616zm2.823-.347v1.84h2.193v.827h-2.193v3.518c0 .528.073.868.217 1.018.145.15.44.226.883.226h1.093v.89h-1.093c-.822 0-1.389-.153-1.701-.46-.313-.306-.469-.864-.469-1.674v-3.518h-.781v-.827h.781v-1.84h1.07zm7.354 2.835a1.41 1.41 0 0 0-.39-.154 2.055 2.055 0 0 0-.466-.049c-.602 0-1.064.196-1.386.588-.322.391-.483.953-.483 1.686v3.414h-1.07v-6.48h1.07v1.006c.224-.393.515-.685.874-.876.358-.191.794-.286 1.307-.286.073 0 .155.004.243.014.089.01.187.024.295.043l.006 1.094zm1.128-3.518h1.065v9.003h-1.065v-9.003z"/><path d="M-27.406 343.41l-.591.844-8.866 12.918-1.097 1.689 1.942-.507 4.39-1.182.085 8.866v.76h8.95l-.085-.76-.084-8.95 4.39 1.013 1.942.422-1.182-1.604-9.118-12.665-.676-.844zm0 2.617l7.514 10.216-3.461-.76-.844-.168v.928l.084 9.035h-5.995V355.23l-.929.253-3.462.929 7.093-10.385z" fill-rule="evenodd" stroke-width=".55"/><path d="M584.6 145.79v2.59h1.173c.434 0 .77-.112 1.006-.337.237-.224.356-.545.356-.96 0-.413-.119-.731-.356-.956-.237-.225-.572-.337-1.006-.337H584.6zm-.933-.766h2.106c.772 0 1.357.174 1.752.524.396.349.593.86.593 1.535 0 .68-.197 1.194-.593 1.542-.395.348-.98.522-1.752.522H584.6v2.77h-.933v-6.894zm8.667 2.516a1.125 1.125 0 0 0-.311-.122 1.64 1.64 0 0 0-.372-.04c-.48 0-.849.157-1.106.47-.257.312-.386.76-.386 1.345v2.724h-.854v-5.171h.854v.803c.179-.314.411-.547.698-.7.286-.152.634-.228 1.043-.228.059 0 .123.004.194.012.071.007.15.019.236.034l.004.873zm1.741-2.263v1.469h1.75v.66h-1.75v2.808c0 .421.058.692.173.812.116.12.35.18.704.18h.873v.711h-.873c-.655 0-1.108-.122-1.357-.367-.25-.244-.374-.69-.374-1.336v-2.808h-.623v-.66h.623v-1.469h.854zm10.052-.027v.91a5.75 5.75 0 0 0-1.002-.38 3.55 3.55 0 0 0-.91-.124c-.508 0-.9.099-1.175.296-.275.197-.413.477-.413.84 0 .305.091.535.275.69.183.156.53.281 1.04.377l.564.115c.696.132 1.21.366 1.54.7.331.334.497.78.497 1.341 0 .668-.224 1.174-.672 1.52-.448.344-1.105.516-1.97.516-.326 0-.673-.037-1.04-.11a7.74 7.74 0 0 1-1.144-.328v-.96c.379.212.75.372 1.113.48.363.107.72.161 1.071.161.533 0 .944-.105 1.233-.314.29-.21.434-.508.434-.896 0-.338-.104-.603-.311-.794-.208-.19-.55-.334-1.023-.43l-.568-.11c-.696-.139-1.2-.356-1.51-.651-.31-.296-.466-.707-.466-1.233 0-.61.214-1.09.644-1.44.43-.352 1.02-.527 1.775-.527.323 0 .653.03.988.088.336.058.68.146 1.03.263zm5.555 1.694v.795a3.308 3.308 0 0 0-.723-.298 2.76 2.76 0 0 0-.732-.1c-.55 0-.979.175-1.283.525-.305.349-.457.84-.457 1.47 0 .631.152 1.121.457 1.47.304.35.732.525 1.283.525.246 0 .49-.033.732-.1.242-.066.483-.165.723-.297v.785c-.237.11-.483.194-.737.25a3.794 3.794 0 0 1-.81.082c-.779 0-1.398-.244-1.856-.734-.459-.49-.688-1.15-.688-1.98 0-.844.231-1.508.695-1.99.463-.484 1.098-.726 1.904-.726a3.488 3.488 0 0 1 1.491.323z"/></g><path d="M52.667 401.95h4.953l-.191.984h-3.79l-.497 2.545h3.425l-.191.984H52.95l-.804 4.125h-1.163l1.683-8.638zm11.427 4.727l-.758 3.911h-1.07l.758-3.87c.034-.182.061-.342.08-.48.02-.14.03-.25.03-.33 0-.325-.103-.577-.307-.759-.204-.18-.49-.271-.856-.271-.571 0-1.063.19-1.476.57-.412.38-.682.895-.81 1.547l-.711 3.593h-1.065l1.255-6.48h1.065l-.214 1.018a3.095 3.095 0 0 1 1.07-.868 2.945 2.945 0 0 1 1.314-.306c.57 0 1.013.154 1.328.463.314.308.471.742.471 1.302 0 .138-.009.287-.026.445-.017.158-.043.33-.078.515zM586.44 157.79l-.18.91a4.522 4.522 0 0 0-.926-.377 3.333 3.333 0 0 0-.889-.127c-.557 0-1 .122-1.33.365a1.148 1.148 0 0 0-.494.97c0 .221.061.391.183.51.121.118.435.245.94.38l.558.14c.631.163 1.07.37 1.316.62.246.251.37.603.37 1.056 0 .695-.274 1.262-.82 1.699-.547.437-1.266.655-2.159.655a5.73 5.73 0 0 1-1.103-.108 6.297 6.297 0 0 1-1.113-.33l.189-.96c.342.212.684.372 1.028.48.343.107.685.161 1.027.161.582 0 1.048-.13 1.399-.388.35-.258.526-.595.526-1.01 0-.278-.07-.488-.21-.631-.14-.143-.44-.273-.902-.39l-.56-.144c-.636-.166-1.071-.357-1.304-.574-.232-.217-.348-.521-.348-.912 0-.687.264-1.25.792-1.688.528-.439 1.215-.658 2.061-.658.33 0 .656.03.98.088.322.058.646.146.969.263zm2.646 7.148c-.394.662-.715 1.075-.963 1.24-.248.164-.564.247-.949.247h-.67l.144-.711h.49a.955.955 0 0 0 .604-.194c.166-.13.353-.382.559-.758l.263-.494-1.145-4.982h.9l.86 3.962 2.373-3.962h.89l-3.356 5.652zm7.979-5.5l-.162.804a2.943 2.943 0 0 0-.71-.277 3.205 3.205 0 0 0-.772-.093c-.446 0-.798.077-1.055.229-.257.152-.386.36-.386.621 0 .305.299.539.896.702l.102.028.272.083c.567.157.944.321 1.134.494.19.172.284.408.284.706 0 .548-.218.994-.654 1.34-.435.344-1.005.516-1.71.516-.274 0-.562-.026-.864-.078a8.333 8.333 0 0 1-.997-.245l.166-.877c.311.16.617.282.919.365.302.083.591.124.868.124.416 0 .753-.089 1.014-.267.26-.179.39-.405.39-.68 0-.295-.342-.533-1.025-.715l-.088-.023-.291-.074c-.43-.114-.746-.264-.947-.45s-.3-.424-.3-.714c0-.55.207-.988.621-1.31.414-.324.977-.486 1.688-.486a4.791 4.791 0 0 1 1.607.277zm5.596-1.108l-.47 2.447h1.2c.47 0 .852-.13 1.143-.39.29-.26.436-.6.436-1.018 0-.335-.098-.593-.293-.771-.196-.179-.477-.268-.843-.268h-1.173zm1.713 2.817a.83.83 0 0 1 .492.341c.13.182.282.544.455 1.086l.586 1.883h-.983l-.54-1.768c-.14-.456-.3-.76-.48-.914-.183-.154-.461-.231-.837-.231h-1.03l-.567 2.913h-.938l1.344-6.893h2.1c.638 0 1.127.143 1.467.431.34.288.51.703.51 1.245a1.894 1.894 0 0 1-1.579 1.906zm6.423 2.535a2.296 2.296 0 0 1-.806.679c-.31.153-.652.23-1.027.23-.523 0-.933-.176-1.23-.528-.298-.353-.446-.838-.446-1.457a3.972 3.972 0 0 1 1.062-2.696 2.34 2.34 0 0 1 .764-.555c.288-.129.59-.194.907-.194.382 0 .696.076.942.227.247.15.425.378.536.683l.148-.776h.854l-1.38 7.111h-.855l.531-2.724zm-2.627-1.2c0 .455.095.802.286 1.04.19.24.466.358.827.358.535 0 .992-.256 1.37-.768.38-.513.569-1.136.569-1.868 0-.443-.098-.783-.293-1.018-.196-.236-.477-.354-.843-.354-.268 0-.516.063-.743.187a1.772 1.772 0 0 0-.596.548c-.179.252-.32.548-.423.886a3.383 3.383 0 0 0-.154.988zm27.55-4.522l-.18.91a4.52 4.52 0 0 0-.926-.377 3.334 3.334 0 0 0-.889-.127c-.557 0-1 .122-1.33.365a1.147 1.147 0 0 0-.494.97c0 .221.061.391.183.51.121.119.435.245.94.38l.558.14c.631.163 1.07.37 1.316.62.246.251.37.603.37 1.056 0 .695-.274 1.262-.82 1.699s-1.266.655-2.159.655a5.75 5.75 0 0 1-1.103-.108 6.297 6.297 0 0 1-1.113-.33l.19-.96c.34.212.683.372 1.026.48.344.107.686.161 1.028.161.582 0 1.048-.129 1.399-.388.35-.258.526-.595.526-1.01 0-.278-.07-.488-.21-.631-.14-.143-.44-.273-.903-.39l-.558-.143c-.637-.167-1.072-.358-1.305-.575-.232-.217-.348-.521-.348-.912 0-.687.264-1.25.792-1.688.528-.439 1.215-.658 2.061-.658.33 0 .656.03.98.088.322.058.646.146.969.263zm5.37 1.695l-.17.84a2.294 2.294 0 0 0-1.363-.443c-.27 0-.529.047-.773.143a1.67 1.67 0 0 0-.617.406 2.967 2.967 0 0 0-.831 2.06c0 .464.116.81.349 1.038.232.228.585.342 1.06.342.233 0 .482-.035.745-.106.263-.07.538-.177.824-.319l-.161.84a3.992 3.992 0 0 1-1.56.306c-.687 0-1.215-.172-1.585-.515-.37-.344-.554-.834-.554-1.47 0-.537.096-1.03.289-1.48a3.65 3.65 0 0 1 .856-1.218 2.58 2.58 0 0 1 .91-.558 3.32 3.32 0 0 1 1.14-.19c.24 0 .479.027.716.081.237.054.479.135.725.243zm4.354.586a1.152 1.152 0 0 0-.295-.106 1.637 1.637 0 0 0-.356-.037c-.452 0-.848.171-1.186.515-.339.343-.564.802-.675 1.378l-.521 2.637h-.85l1.011-5.172h.85l-.162.804c.225-.3.494-.528.806-.688a2.161 2.161 0 0 1 1.272-.224c.09.01.179.028.268.053l-.162.84zm4.28-2.507h.938l-1.182 6.118h3.357l-.153.776h-4.294l1.335-6.894zm5.408-.291h.85l-.813 4.188 2.913-2.175h1.104l-3.25 2.475 2.373 2.697h-1.03l-2.207-2.526-.49 2.526h-.85l1.4-7.185zm19.738.287h1.256l1.902 5.91 1.155-5.91h.91l-1.344 6.894h-1.26l-1.899-5.948-1.154 5.948h-.91l1.344-6.894zm6.109 4.844l.605-3.122h.854l-.605 3.09c-.03.15-.053.28-.067.387-.014.108-.02.197-.02.268 0 .262.08.464.24.607s.386.215.678.215c.456 0 .85-.154 1.182-.462.333-.308.55-.722.651-1.242l.568-2.863h.85l-1.002 5.172h-.85l.171-.813a2.53 2.53 0 0 1-.856.7 2.347 2.347 0 0 1-1.055.247c-.453 0-.805-.124-1.058-.372-.252-.248-.379-.593-.379-1.037a4.558 4.558 0 0 1 .092-.776zm13.862-1.072l-.605 3.122h-.85l.596-3.094a6.34 6.34 0 0 0 .055-.342c.013-.095.019-.177.019-.244 0-.277-.077-.493-.231-.647-.154-.154-.37-.23-.646-.23-.413 0-.78.154-1.104.463-.323.31-.533.712-.628 1.208l-.568 2.886h-.85l.605-3.094a3.72 3.72 0 0 0 .056-.316c.012-.097.018-.184.018-.261 0-.28-.077-.498-.23-.653-.155-.156-.367-.234-.638-.234-.419 0-.79.155-1.113.464-.323.31-.532.712-.628 1.208l-.568 2.886h-.85l1.012-5.172h.85l-.162.804c.23-.302.501-.532.81-.69.31-.159.641-.238.995-.238.376 0 .685.098.926.295.242.197.387.471.437.822.258-.363.557-.64.898-.831.34-.19.7-.286 1.078-.286.443 0 .786.127 1.027.383.242.255.363.617.363 1.085a4.133 4.133 0 0 1-.074.706zm5.324-3.772h.937l-1.182 6.118h3.357l-.152.776h-4.295l1.335-6.894zm5.407-.29h.85l-.813 4.187 2.914-2.175h1.103l-3.25 2.475 2.373 2.697h-1.03l-2.207-2.526-.49 2.526h-.85l1.4-7.185zM511.42 241.56h2.489l-.143.757h-2.498l.152-.757zm-11.75-54.98l-1.658.896 1.658.9-.268.453-1.551-.938v1.741h-.527v-1.74l-1.551.937-.268-.453 1.658-.9-1.658-.896.268-.457 1.551.937v-1.74h.527v1.74l1.551-.937.268.457zm37.17 104.67v2.572h2.572v.785h-2.572v2.572h-.776v-2.572h-2.572v-.785h2.572v-2.572h.776zm24.9 51.94h.822l-3.911 7.771h-.817l3.906-7.771zM343.28 186.14h4.719l-.083.397-3.943 6.497h-1.026l3.727-6.11h-3.546l.152-.784zm53.87 4.44c0-.348-.122-.632-.365-.852-.243-.22-.562-.33-.956-.33-.48 0-.876.144-1.189.432s-.468.651-.468 1.092c0 .35.119.63.358.835.238.207.56.31.967.31.483 0 .88-.14 1.189-.42.31-.28.464-.636.464-1.067zm.476-3.214c0-.292-.108-.528-.324-.706s-.501-.268-.858-.268c-.422 0-.77.119-1.042.356a1.132 1.132 0 0 0-.408.89.94.94 0 0 0 .32.744c.215.188.498.282.852.282.425 0 .775-.123 1.049-.367.274-.245.41-.555.41-.93zm-.633 1.676c.348.133.614.333.799.6.184.269.277.592.277.97 0 .638-.246 1.162-.739 1.575-.492.412-1.128.619-1.907.619-.662 0-1.188-.163-1.58-.487-.39-.325-.586-.758-.586-1.3 0-.493.168-.93.504-1.314.335-.383.772-.627 1.311-.732-.323-.11-.57-.282-.739-.515a1.4 1.4 0 0 1-.254-.847c0-.557.232-1.023.695-1.397.464-.374 1.05-.56 1.762-.56.594 0 1.078.151 1.452.454.374.303.561.689.561 1.157 0 .406-.14.769-.418 1.087-.278.319-.658.549-1.138.69zm46.907 3.478l.17-.85c.18.117.383.207.61.268.228.062.473.093.734.093.638 0 1.151-.202 1.54-.605.39-.404.68-1.032.87-1.884a2.286 2.286 0 0 1-1.76.803c-.559 0-1.004-.162-1.335-.487-.331-.325-.497-.761-.497-1.309 0-.45.082-.867.245-1.254.163-.386.403-.724.72-1.013a2.24 2.24 0 0 1 .749-.467c.283-.107.584-.161.905-.161.637 0 1.14.202 1.51.607.369.405.554.957.554 1.655 0 .65-.086 1.278-.257 1.884a5.361 5.361 0 0 1-.709 1.575 3.3 3.3 0 0 1-1.154 1.067c-.45.243-.948.364-1.496.364a3.56 3.56 0 0 1-1.399-.286zm1.256-4.188c0 .39.102.701.305.93.203.23.477.344.822.344.477 0 .877-.183 1.2-.55.323-.365.485-.821.485-1.366 0-.406-.1-.724-.3-.953s-.476-.344-.827-.344c-.477 0-.877.187-1.2.56-.323.375-.485.834-.485 1.379zM362.8 238.54h1.173l-.882 4.493h.983l-.152.775h-.983l-.31 1.626h-.928l.314-1.626h-3.112l.18-.9 3.717-4.368zm.083.813l-3.075 3.68h2.355l.72-3.68zm51.047-1.653l-.143.776h-2.854l-.332 1.703c.141-.046.285-.08.432-.101a2.98 2.98 0 0 1 .445-.032c.637 0 1.14.17 1.51.512.37.342.554.805.554 1.39 0 .41-.095.802-.284 1.177-.19.376-.458.705-.806.989-.246.197-.547.348-.902.454s-.744.16-1.166.16c-.277 0-.56-.025-.85-.074a7.08 7.08 0 0 1-.91-.222l.171-.868c.284.139.568.242.852.312.285.069.572.104.861.104.6 0 1.097-.18 1.49-.54a1.76 1.76 0 0 0 .588-1.354c0-.4-.128-.71-.385-.932-.257-.222-.617-.333-1.079-.333a3.6 3.6 0 0 0-.76.086 4.813 4.813 0 0 0-.81.256l.67-3.463h3.708zm50.59 5.36c0-.39-.1-.7-.3-.926s-.473-.34-.817-.34a1.54 1.54 0 0 0-1.203.553c-.325.367-.487.822-.487 1.364 0 .406.099.724.297.954.199.229.474.344.825.344.48 0 .88-.189 1.202-.566.322-.377.483-.838.483-1.383zm1.256-4.179l-.157.85a2.098 2.098 0 0 0-.614-.268 2.857 2.857 0 0 0-.739-.092c-.637 0-1.149.2-1.535.6-.387.4-.675 1.026-.866 1.88a2.237 2.237 0 0 1 1.745-.795c.564 0 1.012.162 1.346.487.334.325.501.761.501 1.31 0 .449-.082.866-.247 1.253a2.97 2.97 0 0 1-.718 1.018c-.215.2-.466.354-.752.462a2.574 2.574 0 0 1-.915.161c-.634 0-1.134-.201-1.5-.605-.367-.403-.55-.956-.55-1.657 0-.653.084-1.282.252-1.887a5.283 5.283 0 0 1 .704-1.572 3.256 3.256 0 0 1 1.152-1.066 3.096 3.096 0 0 1 1.494-.365 3.553 3.553 0 0 1 1.399.286zM383.52 297.23h1.524l1.03-5.305-1.723.332.162-.803 1.713-.333h.937l-1.191 6.109h1.519l-.148.785h-3.975l.152-.785zm55.31-2.73l-2.978 2.553h3.292l-.162.776h-4.474l.152-.785 3.113-2.669c.415-.36.71-.676.884-.949s.26-.551.26-.838a.935.935 0 0 0-.313-.73c-.21-.187-.484-.28-.822-.28-.293 0-.617.051-.974.156a7.194 7.194 0 0 0-1.146.457l.171-.923a7.253 7.253 0 0 1 1.095-.342c.347-.077.67-.115.965-.115.603 0 1.089.16 1.456.48.368.32.552.74.552 1.26 0 .351-.087.686-.263 1.005-.175.318-.445.633-.808.944zm47.17-3.21c.339-.099.667-.172.986-.222.318-.049.632-.074.94-.074.609 0 1.092.136 1.45.407a1.3 1.3 0 0 1 .535 1.09c0 .446-.14.83-.423 1.15-.281.32-.67.538-1.165.655.387.11.672.283.854.517s.272.543.272.928c0 .37-.088.716-.265 1.04a2.474 2.474 0 0 1-.765.835 2.673 2.673 0 0 1-.904.4 5.033 5.033 0 0 1-1.215.13 4.61 4.61 0 0 1-.877-.085 5.6 5.6 0 0 1-.9-.256l.17-.882c.29.16.581.28.875.358.294.079.595.118.903.118.606 0 1.098-.156 1.475-.469.377-.312.566-.718.566-1.216 0-.32-.12-.568-.36-.742-.24-.173-.584-.26-1.03-.26h-.803l.143-.758h.85c.51 0 .913-.117 1.207-.35.294-.235.44-.552.44-.952 0-.29-.107-.513-.322-.672-.216-.158-.52-.237-.91-.237a4.53 4.53 0 0 0-.907.094c-.31.063-.63.158-.963.284l.143-.83zm-77.2 50.76c.625 0 1.103.208 1.434.623.33.416.496 1.013.496 1.792a6.84 6.84 0 0 1-.233 1.762 5.967 5.967 0 0 1-.653 1.567c-.287.462-.623.812-1.01 1.05a2.39 2.39 0 0 1-1.28.358c-.604 0-1.07-.209-1.4-.628-.33-.418-.494-1.014-.494-1.786 0-.585.08-1.171.238-1.757a5.9 5.9 0 0 1 .663-1.568c.283-.462.615-.813.995-1.053s.795-.36 1.244-.36zm-.055.739a1.29 1.29 0 0 0-.668.187c-.21.124-.4.308-.57.552-.283.406-.509.913-.676 1.521a7.006 7.006 0 0 0-.252 1.872c0 .508.09.892.27 1.152.18.26.446.39.797.39.246 0 .474-.062.683-.186.21-.125.399-.309.568-.552.28-.403.503-.91.667-1.517a7.147 7.147 0 0 0 .247-1.877c0-.508-.09-.892-.27-1.152-.18-.26-.445-.39-.796-.39z" fill="#2246ff"/></svg>